<svg width="240" height="240" viewBox="0 0 240 240" fill="none" xmlns="http://www.w3.org/2000/svg">
<path d="M121.074 143.847C107.706 143.847 96.8695 133.171 96.8695 120C96.8695 106.83 107.706 96.1531 121.074 96.1531C132.422 96.1531 141.942 103.849 144.561 114.231L191.642 102.666C183.774 71.4751 155.166 48.3584 121.074 48.3584C119.571 48.3584 118.08 48.409 116.6 48.4972V92.1654L102.896 50.6151C99.9845 51.3535 97.1431 52.2654 94.3844 53.3385L108.088 94.8897L82.0297 59.5534C79.5076 61.1381 77.0904 62.8705 74.7927 64.7406L100.848 100.074L64.9859 74.4025C63.088 76.6662 61.3294 79.0477 59.721 81.5326L95.5869 107.206L53.4129 93.7049C52.3237 96.4227 51.3983 99.2221 50.6488 102.091L92.8217 115.592H48.4993C48.4092 117.05 48.3582 118.519 48.3582 120C48.3582 121.481 48.4095 122.95 48.4993 124.409H92.8212L50.6488 137.909C51.3983 140.778 52.3237 143.578 53.4129 146.296L95.5869 132.795L59.721 158.468C61.3294 160.953 63.088 163.334 64.9859 165.598L100.848 139.928L74.7927 175.26C77.0904 177.13 79.5074 178.862 82.0297 180.447L108.088 145.11L94.3844 186.662C97.1431 187.735 99.9845 188.647 102.896 189.385L116.6 147.835V191.503C118.08 191.592 119.571 191.642 121.074 191.642C155.166 191.642 183.774 168.525 191.642 137.335L144.561 125.77C141.942 136.152 132.422 143.847 121.074 143.847Z" fill="#00837B"/>
</svg>
