<svg width="208" height="81" viewBox="0 0 208 81" fill="none" xmlns="http://www.w3.org/2000/svg">
<g clip-path="url(#clip0_1130_1006)">
<path d="M88.1125 24.772H79.9598V54.8222H84.402V43.4293H87.3809C91.1437 43.4293 94.1226 42.5931 96.2653 40.973C98.408 39.3006 99.4532 36.8966 99.4532 33.8132C99.5055 27.8031 95.6904 24.772 88.1125 24.772ZM93.1296 38.1509C91.8753 39.0393 89.8372 39.5097 87.015 39.5097H84.4543V28.6916H87.799C90.2552 28.6916 92.1367 29.1619 93.2341 29.9981C94.3839 30.8865 94.9065 32.1408 94.9065 33.9177C94.9065 35.9036 94.3316 37.2624 93.1296 38.1509Z" fill="white"/>
<path d="M104.104 24.772C103.425 24.772 102.798 24.981 102.328 25.399C101.857 25.817 101.596 26.4963 101.596 27.4369C101.596 28.3252 101.857 29.0045 102.328 29.4748C102.798 29.8928 103.425 30.1541 104.104 30.1541C104.783 30.1541 105.358 29.9451 105.828 29.4748C106.351 29.0045 106.612 28.3252 106.612 27.4369C106.612 26.4963 106.351 25.817 105.828 25.399C105.306 24.981 104.731 24.772 104.104 24.772Z" fill="white"/>
<path d="M106.247 32.0361H101.857V54.8221H106.247V32.0361Z" fill="white"/>
<path d="M120.933 31.6704C119.417 31.6704 117.954 31.984 116.699 32.6111C115.602 33.1337 114.714 33.8131 114.034 34.7016L113.564 32.0885H109.958V54.8744H114.348V43.0634C114.348 40.3458 114.818 38.3599 115.811 37.2101C116.752 36.0604 118.32 35.4855 120.41 35.4855C121.978 35.4855 123.128 35.9036 123.859 36.6875C124.591 37.4714 124.957 38.7257 124.957 40.3981V54.8222H129.294V40.1367C129.294 37.2624 128.615 35.1197 127.204 33.7609C125.845 32.3498 123.702 31.6704 120.933 31.6704Z" fill="white"/>
<path d="M143.823 31.6704C142.308 31.6704 140.844 31.984 139.59 32.6111C138.492 33.1337 137.604 33.8131 136.925 34.7016L136.454 32.0885H132.848V54.8744H137.238V43.0634C137.238 40.3458 137.709 38.3599 138.702 37.2101C139.642 36.0604 141.21 35.4855 143.301 35.4855C144.868 35.4855 146.018 35.9036 146.75 36.6875C147.481 37.4714 147.847 38.7257 147.847 40.3981V54.8222H152.185V40.1367C152.185 37.2624 151.506 35.1197 150.094 33.7609C148.736 32.3498 146.645 31.6704 143.823 31.6704Z" fill="white"/>
<path d="M165.146 31.6704C161.801 31.6704 159.188 32.7156 157.307 34.8061C155.477 36.8443 154.537 39.7709 154.537 43.4292C154.537 45.781 154.955 47.8714 155.791 49.6483C156.627 51.4252 157.881 52.8362 159.502 53.8292C161.069 54.7699 162.951 55.2925 164.989 55.2925C168.281 55.2925 170.947 54.2473 172.828 52.1568C174.71 50.0664 175.65 47.1398 175.65 43.4815C175.65 39.8754 174.71 37.0011 172.828 34.9106C170.947 32.7156 168.334 31.6704 165.146 31.6704ZM169.588 49.4915C168.543 50.8503 167.079 51.4774 165.093 51.4774C163.055 51.4774 161.592 50.798 160.599 49.4915C159.554 48.1327 159.031 46.0945 159.031 43.4292C159.031 38.0985 161.017 35.4855 165.041 35.4855C167.079 35.4855 168.543 36.1126 169.588 37.4192C170.633 38.7257 171.156 40.7639 171.156 43.4292C171.156 46.0423 170.633 48.1327 169.588 49.4915Z" fill="white"/>
<path d="M203.506 32.0362L200.37 44.0563C199.847 46.199 199.429 47.8191 199.168 49.0211C199.063 48.603 198.959 48.1849 198.854 47.7668C198.697 47.2442 198.593 46.7216 198.436 46.199L198.018 44.6834L194.151 31.9839H189.656L185.684 44.6311C185.319 45.7809 184.953 47.2442 184.535 49.0211C184.326 47.8713 183.96 46.408 183.489 44.5789C182.758 41.7568 180.249 31.9316 180.249 31.9316H175.703L181.922 54.7176H186.573L190.597 42.1226C190.963 41.0251 191.329 39.5095 191.799 37.5236C192.322 39.7186 192.74 41.2342 193.001 42.0703L196.868 54.7176H201.676L208 32.0362H203.506Z" fill="white"/>
<path d="M34.2834 0.0522369C15.6261 -1.14977 0 12.804 0 30.0502C0 30.5728 0.0522613 31.0955 0.0522613 31.6181C0.522613 49.2824 8.67538 66.1105 22.6814 77.9738C24.197 79.2804 26.1307 79.9598 28.1166 79.9598C29.3709 79.9598 30.6251 79.6985 31.8271 79.1236C34.2312 77.9738 35.799 75.7266 36.2171 73.2703L38.4643 59.5256C53.7769 56.5467 65.1698 43.2723 63.9156 27.7507C62.7136 13.013 49.9618 1.09746 34.2834 0.0522369ZM14.999 38.7256C15.3126 30.6774 22.2111 23.9357 30.7296 23.3608C33.1337 23.204 35.4332 23.5176 37.5759 24.197C38.3598 24.4583 38.8302 25.1899 38.7256 25.9738L33.9176 55.1357L33.8653 55.1879C33.2382 55.1879 32.6633 55.2402 32.0362 55.2402C22.4201 55.2924 14.6332 47.7668 14.999 38.7256ZM53.202 45.4673C49.7528 49.6482 44.8925 52.8362 39.3005 54.2995L39.405 53.6201L43.6904 27.6985L43.8995 26.4965C44.3698 23.6221 42.6975 20.8 39.8231 19.7547H39.7709C35.9035 18.396 31.5136 17.9779 26.9668 18.9708C17.9779 20.9568 11.1317 28.0643 9.98191 36.6874C9.56382 39.7708 9.92965 42.7497 10.8181 45.4673C13.6402 53.9336 22.0543 60.1527 32.0362 60.1527C32.402 60.1527 32.7678 60.1527 33.1337 60.1005L31.0432 72.5909C30.8864 73.5316 29.998 74.6814 29.005 74.9427C28.0121 75.2562 26.9668 74.9949 26.1829 74.3678C18.6573 67.9919 12.9085 59.996 9.35477 51.2683C6.79397 44.997 5.38291 38.2553 5.22613 31.409C5.22613 30.9909 5.17387 30.5206 5.17387 30.1025C5.17387 15.2603 18.8663 3.39696 35.0151 5.06932C47.401 6.37585 57.3307 15.7829 58.6372 27.3849C59.4211 34.1789 57.2784 40.5547 53.202 45.4673Z" fill="white"/>
</g>
<defs>
<clipPath id="clip0_1130_1006">
<rect width="208" height="80.0121" fill="white"/>
</clipPath>
</defs>
</svg>
