<svg width="160" height="50" viewBox="0 0 160 50" fill="none" xmlns="http://www.w3.org/2000/svg">
<path d="M0 8C0 3.58172 3.58172 0 8 0H152C156.418 0 160 3.58172 160 8V42C160 46.4183 156.418 50 152 50H8C3.58172 50 0 46.4183 0 42V8Z" fill="white"/>
<path d="M28.03 16.3449C26.935 16.3449 25.24 15.0999 23.455 15.1449C21.1 15.1749 18.94 16.5099 17.725 18.6249C15.28 22.8699 17.095 29.1399 19.48 32.5899C20.65 34.2699 22.03 36.1599 23.86 36.0999C25.615 36.0249 26.275 34.9599 28.405 34.9599C30.52 34.9599 31.12 36.0999 32.98 36.0549C34.87 36.0249 36.07 34.3449 37.225 32.6499C38.56 30.6999 39.115 28.8099 39.145 28.7049C39.1 28.6899 35.47 27.2949 35.425 23.0949C35.395 19.5849 38.29 17.9049 38.425 17.8299C36.775 15.4149 34.24 15.1449 33.355 15.0849C31.045 14.9049 29.11 16.3449 28.03 16.3449ZM31.93 12.8049C32.905 11.6349 33.55 9.99988 33.37 8.37988C31.975 8.43988 30.295 9.30988 29.29 10.4799C28.39 11.5149 27.61 13.1799 27.82 14.7699C29.365 14.8899 30.955 13.9749 31.93 12.8049Z" fill="#333333"/>
<path d="M60.768 33.408H55.168L54.064 36H51.92L56.96 24.8H59.008L64.064 36H61.888L60.768 33.408ZM60.08 31.776L57.968 26.88L55.872 31.776H60.08ZM70.0324 27.36C70.8644 27.36 71.6057 27.5413 72.2564 27.904C72.9177 28.2667 73.435 28.7787 73.8084 29.44C74.1817 30.1013 74.3684 30.864 74.3684 31.728C74.3684 32.592 74.1817 33.36 73.8084 34.032C73.435 34.6933 72.9177 35.2053 72.2564 35.568C71.6057 35.9307 70.8644 36.112 70.0324 36.112C68.8804 36.112 67.9684 35.728 67.2964 34.96V39.104H65.2964V27.456H67.2004V28.576C67.531 28.1707 67.9364 27.8667 68.4164 27.664C68.907 27.4613 69.4457 27.36 70.0324 27.36ZM69.8084 34.4C70.5444 34.4 71.147 34.1547 71.6164 33.664C72.0964 33.1733 72.3364 32.528 72.3364 31.728C72.3364 30.928 72.0964 30.2827 71.6164 29.792C71.147 29.3013 70.5444 29.056 69.8084 29.056C69.3284 29.056 68.8964 29.168 68.5124 29.392C68.1284 29.6053 67.8244 29.9147 67.6004 30.32C67.3764 30.7253 67.2644 31.1947 67.2644 31.728C67.2644 32.2613 67.3764 32.7307 67.6004 33.136C67.8244 33.5413 68.1284 33.856 68.5124 34.08C68.8964 34.2933 69.3284 34.4 69.8084 34.4ZM81.0011 27.36C81.8331 27.36 82.5745 27.5413 83.2251 27.904C83.8865 28.2667 84.4038 28.7787 84.7771 29.44C85.1505 30.1013 85.3371 30.864 85.3371 31.728C85.3371 32.592 85.1505 33.36 84.7771 34.032C84.4038 34.6933 83.8865 35.2053 83.2251 35.568C82.5745 35.9307 81.8331 36.112 81.0011 36.112C79.8491 36.112 78.9371 35.728 78.2651 34.96V39.104H76.2651V27.456H78.1691V28.576C78.4998 28.1707 78.9051 27.8667 79.3851 27.664C79.8758 27.4613 80.4145 27.36 81.0011 27.36ZM80.7771 34.4C81.5131 34.4 82.1158 34.1547 82.5851 33.664C83.0651 33.1733 83.3051 32.528 83.3051 31.728C83.3051 30.928 83.0651 30.2827 82.5851 29.792C82.1158 29.3013 81.5131 29.056 80.7771 29.056C80.2971 29.056 79.8651 29.168 79.4811 29.392C79.0971 29.6053 78.7931 29.9147 78.5691 30.32C78.3451 30.7253 78.2331 31.1947 78.2331 31.728C78.2331 32.2613 78.3451 32.7307 78.5691 33.136C78.7931 33.5413 79.0971 33.856 79.4811 34.08C79.8651 34.2933 80.2971 34.4 80.7771 34.4ZM95.3198 36.16C94.4558 36.16 93.6184 36.0373 92.8078 35.792C92.0078 35.5467 91.3731 35.2213 90.9038 34.816L91.6238 33.2C92.0824 33.5627 92.6424 33.8613 93.3038 34.096C93.9758 34.32 94.6478 34.432 95.3198 34.432C96.1518 34.432 96.7704 34.2987 97.1758 34.032C97.5918 33.7653 97.7998 33.4133 97.7998 32.976C97.7998 32.656 97.6824 32.3947 97.4478 32.192C97.2238 31.9787 96.9358 31.8133 96.5838 31.696C96.2318 31.5787 95.7518 31.4453 95.1438 31.296C94.2904 31.0933 93.5971 30.8907 93.0638 30.688C92.5411 30.4853 92.0878 30.1707 91.7038 29.744C91.3304 29.3067 91.1438 28.72 91.1438 27.984C91.1438 27.3653 91.3091 26.8053 91.6398 26.304C91.9811 25.792 92.4878 25.3867 93.1598 25.088C93.8424 24.7893 94.6744 24.64 95.6558 24.64C96.3384 24.64 97.0104 24.7253 97.6718 24.896C98.3331 25.0667 98.9038 25.312 99.3837 25.632L98.7278 27.248C98.2371 26.96 97.7251 26.7413 97.1918 26.592C96.6584 26.4427 96.1411 26.368 95.6398 26.368C94.8184 26.368 94.2051 26.5067 93.7998 26.784C93.4051 27.0613 93.2078 27.4293 93.2078 27.888C93.2078 28.208 93.3198 28.4693 93.5438 28.672C93.7784 28.8747 94.0718 29.0347 94.4238 29.152C94.7758 29.2693 95.2558 29.4027 95.8638 29.552C96.6958 29.744 97.3784 29.9467 97.9118 30.16C98.4451 30.3627 98.8984 30.6773 99.2718 31.104C99.6558 31.5307 99.8478 32.1067 99.8478 32.832C99.8478 33.4507 99.6771 34.0107 99.3358 34.512C99.0051 35.0133 98.4984 35.4133 97.8158 35.712C97.1331 36.0107 96.3011 36.16 95.3198 36.16ZM106.854 35.536C106.62 35.728 106.332 35.872 105.99 35.968C105.66 36.064 105.308 36.112 104.934 36.112C103.996 36.112 103.27 35.8667 102.758 35.376C102.246 34.8853 101.99 34.1707 101.99 33.232V29.12H100.582V27.52H101.99V25.568H103.99V27.52H106.278V29.12H103.99V33.184C103.99 33.6 104.092 33.92 104.294 34.144C104.497 34.3573 104.79 34.464 105.174 34.464C105.622 34.464 105.996 34.3467 106.294 34.112L106.854 35.536ZM112.058 36.112C111.194 36.112 110.416 35.9253 109.722 35.552C109.029 35.1787 108.485 34.6613 108.09 34C107.706 33.328 107.514 32.5707 107.514 31.728C107.514 30.8853 107.706 30.1333 108.09 29.472C108.485 28.8107 109.029 28.2933 109.722 27.92C110.416 27.5467 111.194 27.36 112.058 27.36C112.933 27.36 113.717 27.5467 114.41 27.92C115.104 28.2933 115.642 28.8107 116.026 29.472C116.421 30.1333 116.618 30.8853 116.618 31.728C116.618 32.5707 116.421 33.328 116.026 34C115.642 34.6613 115.104 35.1787 114.41 35.552C113.717 35.9253 112.933 36.112 112.058 36.112ZM112.058 34.4C112.794 34.4 113.402 34.1547 113.882 33.664C114.362 33.1733 114.602 32.528 114.602 31.728C114.602 30.928 114.362 30.2827 113.882 29.792C113.402 29.3013 112.794 29.056 112.058 29.056C111.322 29.056 110.714 29.3013 110.234 29.792C109.765 30.2827 109.53 30.928 109.53 31.728C109.53 32.528 109.765 33.1733 110.234 33.664C110.714 34.1547 111.322 34.4 112.058 34.4ZM120.435 28.704C121.011 27.808 122.024 27.36 123.475 27.36V29.264C123.304 29.232 123.149 29.216 123.011 29.216C122.232 29.216 121.624 29.4453 121.187 29.904C120.749 30.352 120.531 31.0027 120.531 31.856V36H118.531V27.456H120.435V28.704ZM133.125 31.776C133.125 31.9147 133.115 32.112 133.093 32.368H126.389C126.507 32.9973 126.811 33.4987 127.301 33.872C127.803 34.2347 128.421 34.416 129.157 34.416C130.096 34.416 130.869 34.1067 131.477 33.488L132.549 34.72C132.165 35.1787 131.68 35.5253 131.093 35.76C130.507 35.9947 129.845 36.112 129.109 36.112C128.171 36.112 127.344 35.9253 126.629 35.552C125.915 35.1787 125.36 34.6613 124.965 34C124.581 33.328 124.389 32.5707 124.389 31.728C124.389 30.896 124.576 30.1493 124.949 29.488C125.333 28.816 125.861 28.2933 126.533 27.92C127.205 27.5467 127.963 27.36 128.805 27.36C129.637 27.36 130.379 27.5467 131.029 27.92C131.691 28.2827 132.203 28.8 132.565 29.472C132.939 30.1333 133.125 30.9013 133.125 31.776ZM128.805 28.96C128.165 28.96 127.621 29.152 127.173 29.536C126.736 29.9093 126.469 30.4107 126.373 31.04H131.221C131.136 30.4213 130.875 29.92 130.437 29.536C130 29.152 129.456 28.96 128.805 28.96Z" fill="#333333"/>
<path d="M53.026 10.7H55.591C56.257 10.7 56.845 10.835 57.355 11.105C57.865 11.369 58.261 11.741 58.543 12.221C58.825 12.695 58.966 13.238 58.966 13.85C58.966 14.462 58.825 15.008 58.543 15.488C58.261 15.962 57.865 16.334 57.355 16.604C56.845 16.868 56.257 17 55.591 17H53.026V10.7ZM55.555 16.424C56.107 16.424 56.59 16.316 57.004 16.1C57.418 15.878 57.739 15.575 57.967 15.191C58.195 14.801 58.309 14.354 58.309 13.85C58.309 13.346 58.195 12.902 57.967 12.518C57.739 12.128 57.418 11.825 57.004 11.609C56.59 11.387 56.107 11.276 55.555 11.276H53.692V16.424H55.555ZM62.2615 17.045C61.8055 17.045 61.3945 16.943 61.0285 16.739C60.6625 16.529 60.3745 16.241 60.1645 15.875C59.9545 15.509 59.8495 15.095 59.8495 14.633C59.8495 14.171 59.9545 13.757 60.1645 13.391C60.3745 13.025 60.6625 12.74 61.0285 12.536C61.3945 12.332 61.8055 12.23 62.2615 12.23C62.7175 12.23 63.1285 12.332 63.4945 12.536C63.8605 12.74 64.1455 13.025 64.3495 13.391C64.5595 13.757 64.6645 14.171 64.6645 14.633C64.6645 15.095 64.5595 15.509 64.3495 15.875C64.1455 16.241 63.8605 16.529 63.4945 16.739C63.1285 16.943 62.7175 17.045 62.2615 17.045ZM62.2615 16.478C62.5975 16.478 62.8975 16.403 63.1615 16.253C63.4315 16.097 63.6415 15.878 63.7915 15.596C63.9415 15.314 64.0165 14.993 64.0165 14.633C64.0165 14.273 63.9415 13.952 63.7915 13.67C63.6415 13.388 63.4315 13.172 63.1615 13.022C62.8975 12.866 62.5975 12.788 62.2615 12.788C61.9255 12.788 61.6225 12.866 61.3525 13.022C61.0885 13.172 60.8785 13.388 60.7225 13.67C60.5725 13.952 60.4975 14.273 60.4975 14.633C60.4975 14.993 60.5725 15.314 60.7225 15.596C60.8785 15.878 61.0885 16.097 61.3525 16.253C61.6225 16.403 61.9255 16.478 62.2615 16.478ZM72.7853 12.266L70.9943 17H70.3913L68.8973 13.121L67.4033 17H66.8003L65.0183 12.266H65.6303L67.1153 16.289L68.6363 12.266H69.1853L70.6973 16.289L72.2003 12.266H72.7853ZM76.1594 12.23C76.7534 12.23 77.2244 12.404 77.5724 12.752C77.9264 13.094 78.1034 13.595 78.1034 14.255V17H77.4644V14.318C77.4644 13.826 77.3414 13.451 77.0954 13.193C76.8494 12.935 76.4984 12.806 76.0424 12.806C75.5324 12.806 75.1274 12.959 74.8274 13.265C74.5334 13.565 74.3864 13.982 74.3864 14.516V17H73.7474V12.266H74.3594V13.139C74.5334 12.851 74.7734 12.629 75.0794 12.473C75.3914 12.311 75.7514 12.23 76.1594 12.23ZM79.8383 10.322H80.4773V17H79.8383V10.322ZM84.1903 17.045C83.7343 17.045 83.3233 16.943 82.9573 16.739C82.5913 16.529 82.3033 16.241 82.0933 15.875C81.8833 15.509 81.7783 15.095 81.7783 14.633C81.7783 14.171 81.8833 13.757 82.0933 13.391C82.3033 13.025 82.5913 12.74 82.9573 12.536C83.3233 12.332 83.7343 12.23 84.1903 12.23C84.6463 12.23 85.0573 12.332 85.4233 12.536C85.7893 12.74 86.0743 13.025 86.2783 13.391C86.4883 13.757 86.5933 14.171 86.5933 14.633C86.5933 15.095 86.4883 15.509 86.2783 15.875C86.0743 16.241 85.7893 16.529 85.4233 16.739C85.0573 16.943 84.6463 17.045 84.1903 17.045ZM84.1903 16.478C84.5263 16.478 84.8263 16.403 85.0903 16.253C85.3603 16.097 85.5703 15.878 85.7203 15.596C85.8703 15.314 85.9453 14.993 85.9453 14.633C85.9453 14.273 85.8703 13.952 85.7203 13.67C85.5703 13.388 85.3603 13.172 85.0903 13.022C84.8263 12.866 84.5263 12.788 84.1903 12.788C83.8543 12.788 83.5513 12.866 83.2813 13.022C83.0173 13.172 82.8073 13.388 82.6513 13.67C82.5013 13.952 82.4263 14.273 82.4263 14.633C82.4263 14.993 82.5013 15.314 82.6513 15.596C82.8073 15.878 83.0173 16.097 83.2813 16.253C83.5513 16.403 83.8543 16.478 84.1903 16.478ZM89.5275 12.23C90.1455 12.23 90.6195 12.386 90.9495 12.698C91.2795 13.004 91.4445 13.46 91.4445 14.066V17H90.8325V16.262C90.6885 16.508 90.4755 16.7 90.1935 16.838C89.9175 16.976 89.5875 17.045 89.2035 17.045C88.6755 17.045 88.2555 16.919 87.9435 16.667C87.6315 16.415 87.4755 16.082 87.4755 15.668C87.4755 15.266 87.6195 14.942 87.9075 14.696C88.2015 14.45 88.6665 14.327 89.3025 14.327H90.8055V14.039C90.8055 13.631 90.6915 13.322 90.4635 13.112C90.2355 12.896 89.9025 12.788 89.4645 12.788C89.1645 12.788 88.8765 12.839 88.6005 12.941C88.3245 13.037 88.0875 13.172 87.8895 13.346L87.6015 12.869C87.8415 12.665 88.1295 12.509 88.4655 12.401C88.8015 12.287 89.1555 12.23 89.5275 12.23ZM89.3025 16.541C89.6625 16.541 89.9715 16.46 90.2295 16.298C90.4875 16.13 90.6795 15.89 90.8055 15.578V14.804H89.3205C88.5105 14.804 88.1055 15.086 88.1055 15.65C88.1055 15.926 88.2105 16.145 88.4205 16.307C88.6305 16.463 88.9245 16.541 89.3025 16.541ZM97.5176 10.322V17H96.9056V16.064C96.7136 16.382 96.4586 16.625 96.1406 16.793C95.8286 16.961 95.4746 17.045 95.0786 17.045C94.6346 17.045 94.2326 16.943 93.8726 16.739C93.5126 16.535 93.2306 16.25 93.0266 15.884C92.8226 15.518 92.7206 15.101 92.7206 14.633C92.7206 14.165 92.8226 13.748 93.0266 13.382C93.2306 13.016 93.5126 12.734 93.8726 12.536C94.2326 12.332 94.6346 12.23 95.0786 12.23C95.4626 12.23 95.8076 12.311 96.1136 12.473C96.4256 12.629 96.6806 12.86 96.8786 13.166V10.322H97.5176ZM95.1326 16.478C95.4626 16.478 95.7596 16.403 96.0236 16.253C96.2936 16.097 96.5036 15.878 96.6536 15.596C96.8096 15.314 96.8876 14.993 96.8876 14.633C96.8876 14.273 96.8096 13.952 96.6536 13.67C96.5036 13.388 96.2936 13.172 96.0236 13.022C95.7596 12.866 95.4626 12.788 95.1326 12.788C94.7966 12.788 94.4936 12.866 94.2236 13.022C93.9596 13.172 93.7496 13.388 93.5936 13.67C93.4436 13.952 93.3686 14.273 93.3686 14.633C93.3686 14.993 93.4436 15.314 93.5936 15.596C93.7496 15.878 93.9596 16.097 94.2236 16.253C94.4936 16.403 94.7966 16.478 95.1326 16.478ZM103.588 17.045C103.132 17.045 102.721 16.943 102.355 16.739C101.989 16.529 101.701 16.241 101.491 15.875C101.281 15.509 101.176 15.095 101.176 14.633C101.176 14.171 101.281 13.757 101.491 13.391C101.701 13.025 101.989 12.74 102.355 12.536C102.721 12.332 103.132 12.23 103.588 12.23C104.044 12.23 104.455 12.332 104.821 12.536C105.187 12.74 105.472 13.025 105.676 13.391C105.886 13.757 105.991 14.171 105.991 14.633C105.991 15.095 105.886 15.509 105.676 15.875C105.472 16.241 105.187 16.529 104.821 16.739C104.455 16.943 104.044 17.045 103.588 17.045ZM103.588 16.478C103.924 16.478 104.224 16.403 104.488 16.253C104.758 16.097 104.968 15.878 105.118 15.596C105.268 15.314 105.343 14.993 105.343 14.633C105.343 14.273 105.268 13.952 105.118 13.67C104.968 13.388 104.758 13.172 104.488 13.022C104.224 12.866 103.924 12.788 103.588 12.788C103.252 12.788 102.949 12.866 102.679 13.022C102.415 13.172 102.205 13.388 102.049 13.67C101.899 13.952 101.824 14.273 101.824 14.633C101.824 14.993 101.899 15.314 102.049 15.596C102.205 15.878 102.415 16.097 102.679 16.253C102.949 16.403 103.252 16.478 103.588 16.478ZM109.707 12.23C110.301 12.23 110.772 12.404 111.12 12.752C111.474 13.094 111.651 13.595 111.651 14.255V17H111.012V14.318C111.012 13.826 110.889 13.451 110.643 13.193C110.397 12.935 110.046 12.806 109.59 12.806C109.08 12.806 108.675 12.959 108.375 13.265C108.081 13.565 107.934 13.982 107.934 14.516V17H107.295V12.266H107.907V13.139C108.081 12.851 108.321 12.629 108.627 12.473C108.939 12.311 109.299 12.23 109.707 12.23ZM118.235 16.712C118.115 16.82 117.965 16.904 117.785 16.964C117.611 17.018 117.428 17.045 117.236 17.045C116.792 17.045 116.45 16.925 116.21 16.685C115.97 16.445 115.85 16.106 115.85 15.668V12.806H115.004V12.266H115.85V11.231H116.489V12.266H117.929V12.806H116.489V15.632C116.489 15.914 116.558 16.13 116.696 16.28C116.84 16.424 117.044 16.496 117.308 16.496C117.44 16.496 117.566 16.475 117.686 16.433C117.812 16.391 117.92 16.331 118.01 16.253L118.235 16.712ZM121.81 12.23C122.404 12.23 122.875 12.404 123.223 12.752C123.577 13.094 123.754 13.595 123.754 14.255V17H123.115V14.318C123.115 13.826 122.992 13.451 122.746 13.193C122.5 12.935 122.149 12.806 121.693 12.806C121.183 12.806 120.778 12.959 120.478 13.265C120.184 13.565 120.037 13.982 120.037 14.516V17H119.398V10.322H120.037V13.094C120.211 12.818 120.451 12.605 120.757 12.455C121.063 12.305 121.414 12.23 121.81 12.23ZM129.628 14.831H125.668C125.704 15.323 125.893 15.722 126.235 16.028C126.577 16.328 127.009 16.478 127.531 16.478C127.825 16.478 128.095 16.427 128.341 16.325C128.587 16.217 128.8 16.061 128.98 15.857L129.34 16.271C129.13 16.523 128.866 16.715 128.548 16.847C128.236 16.979 127.891 17.045 127.513 17.045C127.027 17.045 126.595 16.943 126.217 16.739C125.845 16.529 125.554 16.241 125.344 15.875C125.134 15.509 125.029 15.095 125.029 14.633C125.029 14.171 125.128 13.757 125.326 13.391C125.53 13.025 125.806 12.74 126.154 12.536C126.508 12.332 126.904 12.23 127.342 12.23C127.78 12.23 128.173 12.332 128.521 12.536C128.869 12.74 129.142 13.025 129.34 13.391C129.538 13.751 129.637 14.165 129.637 14.633L129.628 14.831ZM127.342 12.779C126.886 12.779 126.502 12.926 126.19 13.22C125.884 13.508 125.71 13.886 125.668 14.354H129.025C128.983 13.886 128.806 13.508 128.494 13.22C128.188 12.926 127.804 12.779 127.342 12.779Z" fill="#333333"/>
</svg>
