<svg width="160" height="160" viewBox="0 0 160 160" fill="none" xmlns="http://www.w3.org/2000/svg">
<g opacity="0.2">
<path d="M12.8 9.60001L19.2 16L12.8 22.4" stroke="white" stroke-width="4"/>
</g>
<g opacity="0.2">
<path d="M44.8 9.60001L51.2 16L44.8 22.4" stroke="white" stroke-width="4"/>
</g>
<g opacity="0.2">
<path d="M76.8 9.60001L83.2 16L76.8 22.4" stroke="white" stroke-width="4"/>
</g>
<g opacity="0.2">
<path d="M108.8 9.60001L115.2 16L108.8 22.4" stroke="white" stroke-width="4"/>
</g>
<path d="M140.8 9.60001L147.2 16L140.8 22.4" stroke="white" stroke-width="4"/>
<g opacity="0.2">
<path d="M12.8 41.6L19.2 48L12.8 54.4" stroke="white" stroke-width="4"/>
</g>
<g opacity="0.2">
<path d="M44.8 41.6L51.2 48L44.8 54.4" stroke="white" stroke-width="4"/>
</g>
<g opacity="0.2">
<path d="M76.8 41.6L83.2 48L76.8 54.4" stroke="white" stroke-width="4"/>
</g>
<g opacity="0.2">
<path d="M108.8 41.6L115.2 48L108.8 54.4" stroke="white" stroke-width="4"/>
</g>
<path d="M140.8 41.6L147.2 48L140.8 54.4" stroke="white" stroke-width="4"/>
<g opacity="0.2">
<path d="M12.8 73.6L19.2 80L12.8 86.4" stroke="white" stroke-width="4"/>
</g>
<path d="M44.8 73.6L51.2 80L44.8 86.4" stroke="white" stroke-width="4"/>
<path d="M76.8 73.6L83.2 80L76.8 86.4" stroke="white" stroke-width="4"/>
<g opacity="0.2">
<path d="M108.8 73.6L115.2 80L108.8 86.4" stroke="white" stroke-width="4"/>
</g>
<g opacity="0.2">
<path d="M140.8 73.6L147.2 80L140.8 86.4" stroke="white" stroke-width="4"/>
</g>
<g opacity="0.2">
<path d="M12.8 105.6L19.2 112L12.8 118.4" stroke="white" stroke-width="4"/>
</g>
<g opacity="0.2">
<path d="M44.8 105.6L51.2 112L44.8 118.4" stroke="white" stroke-width="4"/>
</g>
<g opacity="0.2">
<path d="M76.8 105.6L83.2 112L76.8 118.4" stroke="white" stroke-width="4"/>
</g>
<path d="M108.8 105.6L115.2 112L108.8 118.4" stroke="white" stroke-width="4"/>
<g opacity="0.2">
<path d="M140.8 105.6L147.2 112L140.8 118.4" stroke="white" stroke-width="4"/>
</g>
<g opacity="0.2">
<path d="M12.8 137.6L19.2 144L12.8 150.4" stroke="white" stroke-width="4"/>
</g>
<g opacity="0.2">
<path d="M44.8 137.6L51.2 144L44.8 150.4" stroke="white" stroke-width="4"/>
</g>
<path d="M76.8 137.6L83.2 144L76.8 150.4" stroke="white" stroke-width="4"/>
<g opacity="0.2">
<path d="M108.8 137.6L115.2 144L108.8 150.4" stroke="white" stroke-width="4"/>
</g>
<g opacity="0.2">
<path d="M140.8 137.6L147.2 144L140.8 150.4" stroke="white" stroke-width="4"/>
</g>
</svg>
