<svg width="240" height="180" viewBox="0 0 240 180" fill="none" xmlns="http://www.w3.org/2000/svg">
<path d="M208 32C225.673 32 240 17.6731 240 0H176V32H208Z" fill="#002266"/>
<path d="M240 112C240 76.6538 211.346 48 176 48V112H240Z" fill="#002266"/>
<path d="M0 0V32H32V112C49.6731 112 64 97.6731 64 80V32H96V112H128C145.673 112 160 97.6731 160 80H128V32H160V0H0Z" fill="#FF3355"/>
<path d="M144 48H160V64H144V48Z" fill="#FF3355"/>
<path d="M19.1716 171.4C17.0649 171.4 15.1182 171.04 13.3316 170.32C11.5449 169.6 9.99823 168.587 8.69156 167.28C7.3849 165.973 6.37156 164.44 5.65156 162.68C4.93156 160.92 4.57156 158.987 4.57156 156.88C4.57156 154.773 4.93156 152.84 5.65156 151.08C6.37156 149.293 7.3849 147.747 8.69156 146.44C9.99823 145.133 11.5449 144.12 13.3316 143.4C15.1182 142.68 17.0649 142.32 19.1716 142.32C21.3049 142.32 23.2649 142.68 25.0516 143.4C26.8382 144.12 28.3849 145.133 29.6916 146.44C30.9982 147.747 32.0116 149.293 32.7316 151.08C33.4516 152.84 33.8116 154.773 33.8116 156.88C33.8116 158.96 33.4516 160.893 32.7316 162.68C32.0116 164.44 30.9982 165.973 29.6916 167.28C28.3849 168.587 26.8382 169.6 25.0516 170.32C23.2649 171.04 21.3049 171.4 19.1716 171.4ZM19.1716 164.68C20.5849 164.68 21.8382 164.347 22.9316 163.68C24.0249 162.987 24.8916 162.053 25.5316 160.88C26.1716 159.707 26.4916 158.373 26.4916 156.88C26.4916 155.36 26.1716 154.013 25.5316 152.84C24.8916 151.667 24.0249 150.747 22.9316 150.08C21.8382 149.413 20.5849 149.08 19.1716 149.08C17.7582 149.08 16.5049 149.413 15.4116 150.08C14.3182 150.747 13.4516 151.667 12.8116 152.84C12.1982 154.013 11.8916 155.36 11.8916 156.88C11.8916 158.373 12.1982 159.707 12.8116 160.88C13.4516 162.053 14.3182 162.987 15.4116 163.68C16.5049 164.347 17.7582 164.68 19.1716 164.68ZM38.3869 171V149.72H44.7469L44.9069 152.2C45.6535 151.32 46.5869 150.613 47.7069 150.08C48.8535 149.547 50.0535 149.28 51.3069 149.28C53.7069 149.28 55.5335 150.027 56.7869 151.52C58.0669 152.987 58.7069 155.12 58.7069 157.92V171H51.9069V158.48C51.9069 156.08 50.8802 154.907 48.8269 154.96C47.7602 154.96 46.8802 155.28 46.1869 155.92C45.4935 156.56 45.1469 157.347 45.1469 158.28V171H38.3869ZM74.2109 171.4C71.8376 171.4 69.7709 170.933 68.0109 170C66.2776 169.04 64.9309 167.733 63.9709 166.08C63.0109 164.427 62.5309 162.547 62.5309 160.44C62.5309 158.253 62.9976 156.333 63.9309 154.68C64.8643 153 66.1443 151.68 67.7709 150.72C69.3976 149.76 71.2509 149.28 73.3309 149.28C75.3309 149.28 77.1043 149.747 78.6509 150.68C80.1976 151.613 81.3976 152.893 82.2509 154.52C83.1043 156.147 83.5176 158 83.4909 160.08L83.4509 161.8H69.0909C69.4376 162.947 70.1043 163.853 71.0909 164.52C72.1043 165.187 73.3976 165.52 74.9709 165.52C75.8509 165.52 76.6243 165.4 77.2909 165.16C77.9843 164.893 78.7176 164.453 79.4909 163.84L82.6509 168.32C81.3176 169.413 79.9443 170.2 78.5309 170.68C77.1176 171.16 75.6776 171.4 74.2109 171.4ZM73.4509 154.88C71.0243 154.88 69.5443 155.973 69.0109 158.16H77.2509V158.12C77.1976 157.187 76.8109 156.413 76.0909 155.8C75.3976 155.187 74.5176 154.88 73.4509 154.88ZM110.574 171.4C107.694 171.4 105.281 170.907 103.334 169.92C101.388 168.933 99.721 167.56 98.3344 165.8L102.654 160.92C103.988 162.68 105.334 163.867 106.694 164.48C108.081 165.093 109.468 165.4 110.854 165.4C111.894 165.4 112.748 165.213 113.414 164.84C114.081 164.467 114.414 163.907 114.414 163.16C114.414 162.52 114.134 161.987 113.574 161.56C113.041 161.133 112.361 160.8 111.534 160.56C110.708 160.293 109.868 160.067 109.014 159.88C105.921 159.213 103.614 158.16 102.094 156.72C100.574 155.28 99.8144 153.373 99.8144 151C99.8144 149.267 100.308 147.76 101.294 146.48C102.308 145.173 103.628 144.16 105.254 143.44C106.881 142.693 108.628 142.32 110.494 142.32C113.321 142.32 115.561 142.76 117.214 143.64C118.868 144.493 120.201 145.667 121.214 147.16L116.854 151.36C116.001 150.373 115.054 149.64 114.014 149.16C112.974 148.653 111.894 148.4 110.774 148.4C109.654 148.4 108.761 148.587 108.094 148.96C107.428 149.333 107.094 149.88 107.094 150.6C107.094 151.16 107.321 151.627 107.774 152C108.254 152.373 108.854 152.68 109.574 152.92C110.294 153.133 111.041 153.32 111.814 153.48C113.761 153.853 115.468 154.4 116.934 155.12C118.428 155.84 119.588 156.787 120.414 157.96C121.241 159.107 121.654 160.533 121.654 162.24C121.654 164.213 121.174 165.88 120.214 167.24C119.254 168.6 117.934 169.64 116.254 170.36C114.601 171.053 112.708 171.4 110.574 171.4ZM129.765 145.6C128.512 145.6 127.538 145.307 126.845 144.72C126.152 144.107 125.805 143.253 125.805 142.16C125.805 141.173 126.152 140.36 126.845 139.72C127.565 139.08 128.538 138.76 129.765 138.76C131.018 138.76 131.992 139.067 132.685 139.68C133.405 140.267 133.765 141.093 133.765 142.16C133.765 143.173 133.405 144 132.685 144.64C131.992 145.28 131.018 145.6 129.765 145.6ZM126.405 171V149.72H133.165V171H126.405ZM139.167 171V149.72H145.567L145.727 152.36C147.461 150.333 149.474 149.32 151.767 149.32C153.154 149.32 154.327 149.6 155.287 150.16C156.274 150.72 157.141 151.707 157.887 153.12C158.821 151.813 159.914 150.853 161.167 150.24C162.447 149.627 163.781 149.32 165.167 149.32C167.594 149.32 169.447 150.067 170.727 151.56C172.007 153.027 172.647 155.173 172.647 158V171H165.847V158.52C165.847 156.173 164.847 155 162.847 155C161.807 155 160.954 155.32 160.287 155.96C159.621 156.6 159.287 157.387 159.287 158.32V171H152.487V158.52C152.487 157.373 152.221 156.507 151.687 155.92C151.181 155.307 150.461 155 149.527 155C148.487 155 147.634 155.32 146.967 155.96C146.301 156.573 145.967 157.36 145.967 158.32V171H139.167ZM177.957 179.8V149.72H184.357L184.477 151.92C185.171 151.147 186.091 150.52 187.237 150.04C188.384 149.56 189.624 149.32 190.957 149.32C192.771 149.32 194.371 149.787 195.757 150.72C197.171 151.653 198.277 152.96 199.077 154.64C199.904 156.293 200.317 158.2 200.317 160.36C200.317 162.467 199.904 164.36 199.077 166.04C198.277 167.693 197.157 169 195.717 169.96C194.304 170.893 192.691 171.36 190.877 171.36C189.677 171.36 188.544 171.147 187.477 170.72C186.411 170.267 185.504 169.68 184.757 168.96V179.8H177.957ZM189.157 165.68C190.517 165.68 191.611 165.2 192.437 164.24C193.264 163.28 193.677 161.987 193.677 160.36C193.677 158.707 193.264 157.4 192.437 156.44C191.637 155.48 190.544 155 189.157 155C187.744 155 186.624 155.48 185.797 156.44C184.971 157.4 184.557 158.707 184.557 160.36C184.557 161.987 184.971 163.28 185.797 164.24C186.624 165.2 187.744 165.68 189.157 165.68ZM204.481 171V141.4H211.281V171H204.481ZM226.711 171.4C224.338 171.4 222.271 170.933 220.511 170C218.778 169.04 217.431 167.733 216.471 166.08C215.511 164.427 215.031 162.547 215.031 160.44C215.031 158.253 215.498 156.333 216.431 154.68C217.364 153 218.644 151.68 220.271 150.72C221.898 149.76 223.751 149.28 225.831 149.28C227.831 149.28 229.604 149.747 231.151 150.68C232.698 151.613 233.898 152.893 234.751 154.52C235.604 156.147 236.018 158 235.991 160.08L235.951 161.8H221.591C221.938 162.947 222.604 163.853 223.591 164.52C224.604 165.187 225.898 165.52 227.471 165.52C228.351 165.52 229.124 165.4 229.791 165.16C230.484 164.893 231.218 164.453 231.991 163.84L235.151 168.32C233.818 169.413 232.444 170.2 231.031 170.68C229.618 171.16 228.178 171.4 226.711 171.4ZM225.951 154.88C223.524 154.88 222.044 155.973 221.511 158.16H229.751V158.12C229.698 157.187 229.311 156.413 228.591 155.8C227.898 155.187 227.018 154.88 225.951 154.88Z" fill="#002266"/>
</svg>
