<svg width="180" height="180" viewBox="0 0 180 180" fill="none" xmlns="http://www.w3.org/2000/svg">
<g filter="url(#filter0_d_1130_882)">
<path d="M50 90C50 71.1438 50 61.7157 55.8579 55.8579C61.7157 50 71.1438 50 90 50V50C108.856 50 118.284 50 124.142 55.8579C130 61.7157 130 71.1438 130 90V90C130 108.856 130 118.284 124.142 124.142C118.284 130 108.856 130 90 130V130C71.1438 130 61.7157 130 55.8579 124.142C50 118.284 50 108.856 50 90V90Z" fill="url(#paint0_linear_1130_882)"/>
<g clip-path="url(#clip0_1130_882)">
<path fill-rule="evenodd" clip-rule="evenodd" d="M82 87.5C82 86.9477 82.4477 86.5 83 86.5H97C97.5523 86.5 98 86.9477 98 87.5C98 88.0523 97.5523 88.5 97 88.5H83C82.4477 88.5 82 88.0523 82 87.5Z" fill="white"/>
<path fill-rule="evenodd" clip-rule="evenodd" d="M82 93.5C82 92.9477 82.4477 92.5 83 92.5H97C97.5523 92.5 98 92.9477 98 93.5C98 94.0523 97.5523 94.5 97 94.5H83C82.4477 94.5 82 94.0523 82 93.5Z" fill="white"/>
<path fill-rule="evenodd" clip-rule="evenodd" d="M82 99.5C82 98.9477 82.4477 98.5 83 98.5H89.5C90.0523 98.5 90.5 98.9477 90.5 99.5C90.5 100.052 90.0523 100.5 89.5 100.5H83C82.4477 100.5 82 100.052 82 99.5Z" fill="white"/>
<path fill-rule="evenodd" clip-rule="evenodd" d="M85 77.5C85 76.3954 85.8954 75.5 87 75.5H93C94.1046 75.5 95 76.3954 95 77.5C95 78.6046 94.1046 79.5 93 79.5H87C85.8954 79.5 85 78.6046 85 77.5Z" fill="white"/>
<path fill-rule="evenodd" clip-rule="evenodd" d="M85.9241 67.5H94.0759C96.84 67.5 99.0164 67.5 100.717 67.7286C102.462 67.9632 103.854 68.4548 104.95 69.5503C106.045 70.6457 106.537 72.0383 106.771 73.7831C107 75.4836 107 77.66 107 80.424V99.576C107 102.34 107 104.516 106.771 106.217C106.537 107.962 106.045 109.354 104.95 110.45C103.854 111.545 102.462 112.037 100.717 112.271C99.0164 112.5 96.84 112.5 94.076 112.5H85.924C83.16 112.5 80.9836 112.5 79.2831 112.271C77.5383 112.037 76.1457 111.545 75.0503 110.45C73.9548 109.354 73.4632 107.962 73.2286 106.217C73 104.516 73 102.34 73 99.5759V80.4241C73 77.66 73 75.4836 73.2286 73.7831C73.4632 72.0383 73.9548 70.6457 75.0503 69.5503C76.1457 68.4548 77.5383 67.9632 79.2831 67.7286C80.9836 67.5 83.16 67.5 85.9241 67.5ZM79.5496 69.7108C78.0266 69.9155 77.1264 70.3026 76.4645 70.9645C75.8026 71.6264 75.4155 72.5266 75.2108 74.0496C75.0021 75.6014 75 77.6433 75 80.5V99.5C75 102.357 75.0021 104.399 75.2108 105.95C75.4155 107.473 75.8026 108.374 76.4645 109.036C77.1264 109.697 78.0266 110.084 79.5496 110.289C81.1014 110.498 83.1433 110.5 86 110.5H94C96.8567 110.5 98.8986 110.498 100.45 110.289C101.973 110.084 102.874 109.697 103.536 109.036C104.197 108.374 104.584 107.473 104.789 105.95C104.998 104.399 105 102.357 105 99.5V80.5C105 77.6433 104.998 75.6014 104.789 74.0496C104.584 72.5266 104.197 71.6264 103.536 70.9645C102.874 70.3026 101.973 69.9155 100.45 69.7108C98.8986 69.5021 96.8567 69.5 94 69.5H86C83.1433 69.5 81.1014 69.5021 79.5496 69.7108Z" fill="white"/>
</g>
<path d="M97.5 104.997C97.5 102.642 97.5 101.464 98.2322 100.732C98.9645 100 100.143 100 102.5 100H107.5C109.857 100 111.036 100 111.768 100.732C112.5 101.464 112.5 102.642 112.5 104.997C112.5 105.724 112.5 106.554 112.5 107.5C112.5 112.314 108.387 114.659 106.252 115.553C105.752 115.762 105.502 115.867 105 115.867C104.498 115.867 104.248 115.762 103.748 115.553C101.613 114.659 97.5 112.314 97.5 107.5C97.5 106.554 97.5 105.724 97.5 104.997Z" fill="url(#paint1_linear_1130_882)"/>
<path fill-rule="evenodd" clip-rule="evenodd" d="M102.431 99H107.569C108.689 99 109.629 98.9999 110.376 99.1004C111.168 99.2069 111.892 99.4422 112.475 100.025C113.058 100.608 113.293 101.331 113.4 102.123C113.5 102.87 113.5 103.809 113.5 104.928L113.5 107.5C113.5 112.983 108.814 115.565 106.638 116.475L106.611 116.487C106.11 116.696 105.703 116.867 105 116.867C104.297 116.867 103.89 116.696 103.389 116.487L103.362 116.475C101.186 115.565 96.5 112.983 96.5 107.5L96.5 104.997C96.5 104.974 96.5 104.951 96.5 104.928C96.5 103.809 96.4999 102.87 96.6005 102.123C96.7069 101.331 96.9424 100.608 97.5251 100.025C98.108 99.4423 98.8319 99.2069 99.6235 99.1005C100.371 98.9999 101.311 99 102.431 99ZM99.89 101.083C99.3202 101.159 99.0887 101.29 98.9393 101.439C98.7898 101.589 98.6592 101.82 98.5826 102.389C98.5021 102.987 98.5 103.791 98.5 104.997L98.5 107.5C98.5 111.644 102.04 113.754 104.134 114.63C104.621 114.834 104.712 114.867 105 114.867C105.288 114.867 105.379 114.834 105.866 114.63C107.96 113.754 111.5 111.644 111.5 107.5L111.5 104.997C111.5 103.791 111.498 102.987 111.417 102.389C111.341 101.82 111.21 101.589 111.061 101.439C110.911 101.29 110.68 101.159 110.11 101.083C109.511 101.002 108.707 101 107.5 101H102.5C101.293 101 100.489 101.002 99.89 101.083Z" fill="white"/>
<path fill-rule="evenodd" clip-rule="evenodd" d="M108.707 105.293C109.098 105.683 109.098 106.317 108.707 106.707L104.707 110.707C104.317 111.098 103.683 111.098 103.293 110.707L101.293 108.707C100.902 108.317 100.902 107.683 101.293 107.293C101.683 106.902 102.317 106.902 102.707 107.293L104 108.586L107.293 105.293C107.683 104.902 108.317 104.902 108.707 105.293Z" fill="white"/>
</g>
<defs>
<filter id="filter0_d_1130_882" x="30" y="42" width="112" height="112" filterUnits="userSpaceOnUse" color-interpolation-filters="sRGB">
<feFlood flood-opacity="0" result="BackgroundImageFix"/>
<feColorMatrix in="SourceAlpha" type="matrix" values="0 0 0 0 0 0 0 0 0 0 0 0 0 0 0 0 0 0 127 0" result="hardAlpha"/>
<feOffset dx="-4" dy="8"/>
<feGaussianBlur stdDeviation="8"/>
<feColorMatrix type="matrix" values="0 0 0 0 0 0 0 0 0 0.513726 0 0 0 0 0.482353 0 0 0 0.32 0"/>
<feBlend mode="normal" in2="BackgroundImageFix" result="effect1_dropShadow_1130_882"/>
<feBlend mode="normal" in="SourceGraphic" in2="effect1_dropShadow_1130_882" result="shape"/>
</filter>
<linearGradient id="paint0_linear_1130_882" x1="130" y1="50" x2="41.8326" y2="119.663" gradientUnits="userSpaceOnUse">
<stop stop-color="#00E0FF"/>
<stop offset="1" stop-color="#0A2240"/>
</linearGradient>
<linearGradient id="paint1_linear_1130_882" x1="112.5" y1="100" x2="95.2648" y2="112.874" gradientUnits="userSpaceOnUse">
<stop stop-color="#00E8DA"/>
<stop offset="1" stop-color="#00837B"/>
</linearGradient>
<clipPath id="clip0_1130_882">
<rect width="34" height="45" fill="white" transform="translate(73 67.5)"/>
</clipPath>
</defs>
</svg>
