<svg width="180" height="180" viewBox="0 0 180 180" fill="none" xmlns="http://www.w3.org/2000/svg">
<g opacity="0.5">
<mask id="mask0_1130_868" style="mask-type:alpha" maskUnits="userSpaceOnUse" x="20" y="12" width="140" height="156">
<path d="M82 14.6188C86.9504 11.7607 93.0496 11.7607 98 14.6188L151.282 45.3812C156.232 48.2393 159.282 53.5214 159.282 59.2376V120.762C159.282 126.479 156.232 131.761 151.282 134.619L98 165.381C93.0496 168.239 86.9504 168.239 82 165.381L28.718 134.619C23.7675 131.761 20.718 126.479 20.718 120.762V59.2376C20.718 53.5214 23.7675 48.2393 28.718 45.3812L82 14.6188Z" fill="url(#paint0_linear_1130_868)"/>
</mask>
<g mask="url(#mask0_1130_868)">
<g opacity="0.4" filter="url(#filter0_f_1130_868)">
<circle cx="40" cy="120" r="80" fill="#77BA6A"/>
</g>
<g opacity="0.8" filter="url(#filter1_f_1130_868)">
<circle cx="120" cy="40" r="40" fill="#00E8DA"/>
</g>
</g>
</g>
<defs>
<filter id="filter0_f_1130_868" x="-120" y="-40" width="320" height="320" filterUnits="userSpaceOnUse" color-interpolation-filters="sRGB">
<feFlood flood-opacity="0" result="BackgroundImageFix"/>
<feBlend mode="normal" in="SourceGraphic" in2="BackgroundImageFix" result="shape"/>
<feGaussianBlur stdDeviation="40" result="effect1_foregroundBlur_1130_868"/>
</filter>
<filter id="filter1_f_1130_868" x="0" y="-80" width="240" height="240" filterUnits="userSpaceOnUse" color-interpolation-filters="sRGB">
<feFlood flood-opacity="0" result="BackgroundImageFix"/>
<feBlend mode="normal" in="SourceGraphic" in2="BackgroundImageFix" result="shape"/>
<feGaussianBlur stdDeviation="40" result="effect1_foregroundBlur_1130_868"/>
</filter>
<linearGradient id="paint0_linear_1130_868" x1="170" y1="10" x2="-6.3348" y2="149.326" gradientUnits="userSpaceOnUse">
<stop stop-color="#FFF080"/>
<stop offset="1" stop-color="#E07E37"/>
</linearGradient>
</defs>
</svg>
