<svg width="320" height="320" viewBox="0 0 320 320" fill="none" xmlns="http://www.w3.org/2000/svg">
<g opacity="0.2">
<circle cx="20" cy="20" r="4" stroke="#0080A0" stroke-width="2"/>
</g>
<circle cx="60" cy="20" r="4" stroke="#0080A0" stroke-width="2"/>
<g opacity="0.2">
<circle cx="100" cy="20" r="4" stroke="#0080A0" stroke-width="2"/>
</g>
<g opacity="0.2">
<circle cx="140" cy="20" r="4" stroke="#0080A0" stroke-width="2"/>
</g>
<g opacity="0.2">
<circle cx="20" cy="60" r="4" stroke="#0080A0" stroke-width="2"/>
</g>
<g opacity="0.2">
<circle cx="60" cy="60" r="4" stroke="#0080A0" stroke-width="2"/>
</g>
<circle cx="100" cy="60" r="4" stroke="#0080A0" stroke-width="2"/>
<circle cx="140" cy="60" r="4" stroke="#0080A0" stroke-width="2"/>
<circle cx="20" cy="100" r="4" stroke="#0080A0" stroke-width="2"/>
<g opacity="0.2">
<circle cx="60" cy="100" r="4" stroke="#0080A0" stroke-width="2"/>
</g>
<g opacity="0.2">
<circle cx="100" cy="100" r="4" stroke="#0080A0" stroke-width="2"/>
</g>
<g opacity="0.2">
<circle cx="140" cy="100" r="4" stroke="#0080A0" stroke-width="2"/>
</g>
<g opacity="0.2">
<circle cx="20" cy="140" r="4" stroke="#0080A0" stroke-width="2"/>
</g>
<circle cx="60" cy="140" r="4" stroke="#0080A0" stroke-width="2"/>
<g opacity="0.2">
<circle cx="100" cy="140" r="4" stroke="#0080A0" stroke-width="2"/>
</g>
<g opacity="0.2">
<circle cx="140" cy="140" r="4" stroke="#0080A0" stroke-width="2"/>
</g>
<circle cx="180" cy="20" r="4" stroke="#0080A0" stroke-width="2"/>
<g opacity="0.2">
<circle cx="220" cy="20" r="4" stroke="#0080A0" stroke-width="2"/>
</g>
<circle cx="260" cy="20" r="4" stroke="#0080A0" stroke-width="2"/>
<g opacity="0.2">
<circle cx="300" cy="20" r="4" stroke="#0080A0" stroke-width="2"/>
</g>
<g opacity="0.2">
<circle cx="180" cy="60" r="4" stroke="#0080A0" stroke-width="2"/>
</g>
<g opacity="0.2">
<circle cx="220" cy="60" r="4" stroke="#0080A0" stroke-width="2"/>
</g>
<g opacity="0.2">
<circle cx="260" cy="60" r="4" stroke="#0080A0" stroke-width="2"/>
</g>
<circle cx="300" cy="60" r="4" stroke="#0080A0" stroke-width="2"/>
<g opacity="0.2">
<circle cx="180" cy="100" r="4" stroke="#0080A0" stroke-width="2"/>
</g>
<g opacity="0.2">
<circle cx="220" cy="100" r="4" stroke="#0080A0" stroke-width="2"/>
</g>
<g opacity="0.2">
<circle cx="260" cy="100" r="4" stroke="#0080A0" stroke-width="2"/>
</g>
<g opacity="0.2">
<circle cx="300" cy="100" r="4" stroke="#0080A0" stroke-width="2"/>
</g>
<circle cx="180" cy="140" r="4" stroke="#0080A0" stroke-width="2"/>
<g opacity="0.2">
<circle cx="220" cy="140" r="4" stroke="#0080A0" stroke-width="2"/>
</g>
<g opacity="0.2">
<circle cx="260" cy="140" r="4" stroke="#0080A0" stroke-width="2"/>
</g>
<g opacity="0.2">
<circle cx="300" cy="140" r="4" stroke="#0080A0" stroke-width="2"/>
</g>
<g opacity="0.2">
<circle cx="20" cy="180" r="4" stroke="#0080A0" stroke-width="2"/>
</g>
<g opacity="0.2">
<circle cx="60" cy="180" r="4" stroke="#0080A0" stroke-width="2"/>
</g>
<circle cx="100" cy="180" r="4" stroke="#0080A0" stroke-width="2"/>
<g opacity="0.2">
<circle cx="140" cy="180" r="4" stroke="#0080A0" stroke-width="2"/>
</g>
<circle cx="20" cy="220" r="4" stroke="#0080A0" stroke-width="2"/>
<g opacity="0.2">
<circle cx="60" cy="220" r="4" stroke="#0080A0" stroke-width="2"/>
</g>
<circle cx="100" cy="220" r="4" stroke="#0080A0" stroke-width="2"/>
<circle cx="140" cy="220" r="4" stroke="#0080A0" stroke-width="2"/>
<g opacity="0.2">
<circle cx="20" cy="260" r="4" stroke="#0080A0" stroke-width="2"/>
</g>
<g opacity="0.2">
<circle cx="60" cy="260" r="4" stroke="#0080A0" stroke-width="2"/>
</g>
<g opacity="0.2">
<circle cx="100" cy="260" r="4" stroke="#0080A0" stroke-width="2"/>
</g>
<g opacity="0.2">
<circle cx="140" cy="260" r="4" stroke="#0080A0" stroke-width="2"/>
</g>
<circle cx="20" cy="300" r="4" stroke="#0080A0" stroke-width="2"/>
<circle cx="60" cy="300" r="4" stroke="#0080A0" stroke-width="2"/>
<g opacity="0.2">
<circle cx="100" cy="300" r="4" stroke="#0080A0" stroke-width="2"/>
</g>
<g opacity="0.2">
<circle cx="140" cy="300" r="4" stroke="#0080A0" stroke-width="2"/>
</g>
<g opacity="0.2">
<circle cx="180" cy="180" r="4" stroke="#0080A0" stroke-width="2"/>
</g>
<g opacity="0.2">
<circle cx="220" cy="180" r="4" stroke="#0080A0" stroke-width="2"/>
</g>
<circle cx="260" cy="180" r="4" stroke="#0080A0" stroke-width="2"/>
<g opacity="0.2">
<circle cx="300" cy="180" r="4" stroke="#0080A0" stroke-width="2"/>
</g>
<g opacity="0.2">
<circle cx="180" cy="220" r="4" stroke="#0080A0" stroke-width="2"/>
</g>
<g opacity="0.2">
<circle cx="220" cy="220" r="4" stroke="#0080A0" stroke-width="2"/>
</g>
<g opacity="0.2">
<circle cx="260" cy="220" r="4" stroke="#0080A0" stroke-width="2"/>
</g>
<g opacity="0.2">
<circle cx="300" cy="220" r="4" stroke="#0080A0" stroke-width="2"/>
</g>
<g opacity="0.2">
<circle cx="180" cy="260" r="4" stroke="#0080A0" stroke-width="2"/>
</g>
<g opacity="0.2">
<circle cx="220" cy="260" r="4" stroke="#0080A0" stroke-width="2"/>
</g>
<g opacity="0.2">
<circle cx="260" cy="260" r="4" stroke="#0080A0" stroke-width="2"/>
</g>
<g opacity="0.2">
<circle cx="300" cy="260" r="4" stroke="#0080A0" stroke-width="2"/>
</g>
<circle cx="180" cy="300" r="4" stroke="#0080A0" stroke-width="2"/>
<g opacity="0.2">
<circle cx="220" cy="300" r="4" stroke="#0080A0" stroke-width="2"/>
</g>
<g opacity="0.2">
<circle cx="260" cy="300" r="4" stroke="#0080A0" stroke-width="2"/>
</g>
<circle cx="300" cy="300" r="4" stroke="#0080A0" stroke-width="2"/>
</svg>
