<svg width="320" height="160" viewBox="0 0 320 160" fill="none" xmlns="http://www.w3.org/2000/svg">
<g opacity="0.2">
<rect x="12" y="19" width="16" height="2" fill="#0080A0"/>
<rect x="19" y="12" width="2" height="16" fill="#0080A0"/>
</g>
<g opacity="0.2">
<rect x="52" y="19" width="16" height="2" fill="#0080A0"/>
<rect x="59" y="12" width="2" height="16" fill="#0080A0"/>
</g>
<rect x="92" y="19" width="16" height="2" fill="#0080A0"/>
<rect x="99" y="12" width="2" height="16" fill="#0080A0"/>
<g opacity="0.2">
<rect x="132" y="19" width="16" height="2" fill="#0080A0"/>
<rect x="139" y="12" width="2" height="16" fill="#0080A0"/>
</g>
<g opacity="0.2">
<rect x="12" y="59" width="16" height="2" fill="#0080A0"/>
<rect x="19" y="52" width="2" height="16" fill="#0080A0"/>
</g>
<rect x="52" y="59" width="16" height="2" fill="#0080A0"/>
<rect x="59" y="52" width="2" height="16" fill="#0080A0"/>
<rect x="92" y="59" width="16" height="2" fill="#0080A0"/>
<rect x="99" y="52" width="2" height="16" fill="#0080A0"/>
<g opacity="0.2">
<rect x="132" y="59" width="16" height="2" fill="#0080A0"/>
<rect x="139" y="52" width="2" height="16" fill="#0080A0"/>
</g>
<g opacity="0.2">
<rect x="12" y="99" width="16" height="2" fill="#0080A0"/>
<rect x="19" y="92" width="2" height="16" fill="#0080A0"/>
</g>
<g opacity="0.2">
<rect x="52" y="99" width="16" height="2" fill="#0080A0"/>
<rect x="59" y="92" width="2" height="16" fill="#0080A0"/>
</g>
<g opacity="0.2">
<rect x="92" y="99" width="16" height="2" fill="#0080A0"/>
<rect x="99" y="92" width="2" height="16" fill="#0080A0"/>
</g>
<g opacity="0.2">
<rect x="132" y="99" width="16" height="2" fill="#0080A0"/>
<rect x="139" y="92" width="2" height="16" fill="#0080A0"/>
</g>
<g opacity="0.2">
<rect x="12" y="139" width="16" height="2" fill="#0080A0"/>
<rect x="19" y="132" width="2" height="16" fill="#0080A0"/>
</g>
<g opacity="0.2">
<rect x="52" y="139" width="16" height="2" fill="#0080A0"/>
<rect x="59" y="132" width="2" height="16" fill="#0080A0"/>
</g>
<rect x="92" y="139" width="16" height="2" fill="#0080A0"/>
<rect x="99" y="132" width="2" height="16" fill="#0080A0"/>
<rect x="132" y="139" width="16" height="2" fill="#0080A0"/>
<rect x="139" y="132" width="2" height="16" fill="#0080A0"/>
<g opacity="0.2">
<rect x="172" y="19" width="16" height="2" fill="#0080A0"/>
<rect x="179" y="12" width="2" height="16" fill="#0080A0"/>
</g>
<rect x="212" y="19" width="16" height="2" fill="#0080A0"/>
<rect x="219" y="12" width="2" height="16" fill="#0080A0"/>
<g opacity="0.2">
<rect x="252" y="19" width="16" height="2" fill="#0080A0"/>
<rect x="259" y="12" width="2" height="16" fill="#0080A0"/>
</g>
<g opacity="0.2">
<rect x="292" y="19" width="16" height="2" fill="#0080A0"/>
<rect x="299" y="12" width="2" height="16" fill="#0080A0"/>
</g>
<rect x="172" y="59" width="16" height="2" fill="#0080A0"/>
<rect x="179" y="52" width="2" height="16" fill="#0080A0"/>
<g opacity="0.2">
<rect x="212" y="59" width="16" height="2" fill="#0080A0"/>
<rect x="219" y="52" width="2" height="16" fill="#0080A0"/>
</g>
<g opacity="0.2">
<rect x="252" y="59" width="16" height="2" fill="#0080A0"/>
<rect x="259" y="52" width="2" height="16" fill="#0080A0"/>
</g>
<g opacity="0.2">
<rect x="292" y="59" width="16" height="2" fill="#0080A0"/>
<rect x="299" y="52" width="2" height="16" fill="#0080A0"/>
</g>
<g opacity="0.2">
<rect x="172" y="99" width="16" height="2" fill="#0080A0"/>
<rect x="179" y="92" width="2" height="16" fill="#0080A0"/>
</g>
<rect x="212" y="99" width="16" height="2" fill="#0080A0"/>
<rect x="219" y="92" width="2" height="16" fill="#0080A0"/>
<g opacity="0.2">
<rect x="252" y="99" width="16" height="2" fill="#0080A0"/>
<rect x="259" y="92" width="2" height="16" fill="#0080A0"/>
</g>
<rect x="292" y="99" width="16" height="2" fill="#0080A0"/>
<rect x="299" y="92" width="2" height="16" fill="#0080A0"/>
<g opacity="0.2">
<rect x="172" y="139" width="16" height="2" fill="#0080A0"/>
<rect x="179" y="132" width="2" height="16" fill="#0080A0"/>
</g>
<g opacity="0.2">
<rect x="212" y="139" width="16" height="2" fill="#0080A0"/>
<rect x="219" y="132" width="2" height="16" fill="#0080A0"/>
</g>
<g opacity="0.2">
<rect x="252" y="139" width="16" height="2" fill="#0080A0"/>
<rect x="259" y="132" width="2" height="16" fill="#0080A0"/>
</g>
<g opacity="0.2">
<rect x="292" y="139" width="16" height="2" fill="#0080A0"/>
<rect x="299" y="132" width="2" height="16" fill="#0080A0"/>
</g>
</svg>
