<svg width="160" height="50" viewBox="0 0 160 50" fill="none" xmlns="http://www.w3.org/2000/svg">
<path d="M0 8C0 3.58172 3.58172 0 8 0H152C156.418 0 160 3.58172 160 8V42C160 46.4183 156.418 50 152 50H8C3.58172 50 0 46.4183 0 42V8Z" fill="white"/>
<path d="M16.44 11.5402C16.1141 11.9313 15.9496 12.432 15.98 12.9402V35.0602C15.9496 35.5684 16.1141 36.0691 16.44 36.4602L16.51 36.5302L28.9 24.1502V23.8602L16.51 11.4702L16.44 11.5402Z" fill="url(#paint0_linear_1130_1023)"/>
<path d="M33 28.2802L28.9 24.1502V23.8602L33 19.7202L33.09 19.7702L38 22.5602C39.4 23.3502 39.4 24.6502 38 25.4502L33.11 28.2302L33 28.2802Z" fill="url(#paint1_linear_1130_1023)"/>
<path d="M33.1199 28.22L28.8999 24L16.4399 36.46C16.7253 36.7109 17.0893 36.8541 17.4691 36.8651C17.8489 36.876 18.2206 36.754 18.5199 36.52L33.1299 28.22" fill="url(#paint2_linear_1130_1023)"/>
<path d="M33.1201 19.78L18.5101 11.48C18.2107 11.2461 17.839 11.124 17.4592 11.135C17.0794 11.1459 16.7154 11.2892 16.4301 11.54L28.9001 24L33.1201 19.78Z" fill="url(#paint3_linear_1130_1023)"/>
<path d="M61.152 30.272H63.12V34.736C62.544 35.1947 61.872 35.5467 61.104 35.792C60.336 36.0373 59.5467 36.16 58.736 36.16C57.5947 36.16 56.5653 35.9147 55.648 35.424C54.7307 34.9227 54.0107 34.2347 53.488 33.36C52.9653 32.4853 52.704 31.4987 52.704 30.4C52.704 29.3013 52.9653 28.3147 53.488 27.44C54.0107 26.5653 54.7307 25.8827 55.648 25.392C56.576 24.8907 57.616 24.64 58.768 24.64C59.7067 24.64 60.56 24.7947 61.328 25.104C62.096 25.4133 62.7413 25.8667 63.264 26.464L61.952 27.744C61.0987 26.8907 60.0693 26.464 58.864 26.464C58.0747 26.464 57.3707 26.6293 56.752 26.96C56.144 27.2907 55.664 27.7547 55.312 28.352C54.9707 28.9493 54.8 29.632 54.8 30.4C54.8 31.1467 54.9707 31.8187 55.312 32.416C55.664 33.0133 56.144 33.4827 56.752 33.824C57.3707 34.1653 58.0693 34.336 58.848 34.336C59.7227 34.336 60.4907 34.144 61.152 33.76V30.272ZM69.5114 36.112C68.6474 36.112 67.8687 35.9253 67.1754 35.552C66.482 35.1787 65.938 34.6613 65.5434 34C65.1594 33.328 64.9674 32.5707 64.9674 31.728C64.9674 30.8853 65.1594 30.1333 65.5434 29.472C65.938 28.8107 66.482 28.2933 67.1754 27.92C67.8687 27.5467 68.6474 27.36 69.5114 27.36C70.386 27.36 71.17 27.5467 71.8634 27.92C72.5567 28.2933 73.0954 28.8107 73.4794 29.472C73.874 30.1333 74.0714 30.8853 74.0714 31.728C74.0714 32.5707 73.874 33.328 73.4794 34C73.0954 34.6613 72.5567 35.1787 71.8634 35.552C71.17 35.9253 70.386 36.112 69.5114 36.112ZM69.5114 34.4C70.2474 34.4 70.8554 34.1547 71.3354 33.664C71.8154 33.1733 72.0554 32.528 72.0554 31.728C72.0554 30.928 71.8154 30.2827 71.3354 29.792C70.8554 29.3013 70.2474 29.056 69.5114 29.056C68.7754 29.056 68.1674 29.3013 67.6874 29.792C67.218 30.2827 66.9834 30.928 66.9834 31.728C66.9834 32.528 67.218 33.1733 67.6874 33.664C68.1674 34.1547 68.7754 34.4 69.5114 34.4ZM79.8239 36.112C78.9599 36.112 78.1812 35.9253 77.4879 35.552C76.7945 35.1787 76.2505 34.6613 75.8559 34C75.4719 33.328 75.2799 32.5707 75.2799 31.728C75.2799 30.8853 75.4719 30.1333 75.8559 29.472C76.2505 28.8107 76.7945 28.2933 77.4879 27.92C78.1812 27.5467 78.9599 27.36 79.8239 27.36C80.6985 27.36 81.4825 27.5467 82.1759 27.92C82.8692 28.2933 83.4079 28.8107 83.7919 29.472C84.1865 30.1333 84.3839 30.8853 84.3839 31.728C84.3839 32.5707 84.1865 33.328 83.7919 34C83.4079 34.6613 82.8692 35.1787 82.1759 35.552C81.4825 35.9253 80.6985 36.112 79.8239 36.112ZM79.8239 34.4C80.5599 34.4 81.1679 34.1547 81.6479 33.664C82.1279 33.1733 82.3679 32.528 82.3679 31.728C82.3679 30.928 82.1279 30.2827 81.6479 29.792C81.1679 29.3013 80.5599 29.056 79.8239 29.056C79.0879 29.056 78.4799 29.3013 77.9999 29.792C77.5305 30.2827 77.2959 30.928 77.2959 31.728C77.2959 32.528 77.5305 33.1733 77.9999 33.664C78.4799 34.1547 79.0879 34.4 79.8239 34.4ZM94.7764 27.456V34.704C94.7764 37.712 93.2404 39.216 90.1684 39.216C89.347 39.216 88.5684 39.1093 87.8324 38.896C87.0964 38.6933 86.4884 38.3947 86.0084 38L86.9044 36.496C87.2777 36.8053 87.747 37.0507 88.3124 37.232C88.8884 37.424 89.4697 37.52 90.0564 37.52C90.995 37.52 91.683 37.3067 92.1204 36.88C92.5577 36.4533 92.7764 35.8027 92.7764 34.928V34.48C92.435 34.8533 92.019 35.136 91.5284 35.328C91.0377 35.52 90.499 35.616 89.9124 35.616C89.1017 35.616 88.3657 35.4453 87.7044 35.104C87.0537 34.752 86.5364 34.2613 86.1524 33.632C85.779 33.0027 85.5924 32.2827 85.5924 31.472C85.5924 30.6613 85.779 29.9467 86.1524 29.328C86.5364 28.6987 87.0537 28.2133 87.7044 27.872C88.3657 27.5307 89.1017 27.36 89.9124 27.36C90.531 27.36 91.091 27.4613 91.5924 27.664C92.1044 27.8667 92.531 28.176 92.8724 28.592V27.456H94.7764ZM90.2164 33.92C90.9737 33.92 91.5924 33.696 92.0724 33.248C92.563 32.7893 92.8084 32.1973 92.8084 31.472C92.8084 30.7573 92.563 30.176 92.0724 29.728C91.5924 29.28 90.9737 29.056 90.2164 29.056C89.4484 29.056 88.819 29.28 88.3284 29.728C87.8484 30.176 87.6084 30.7573 87.6084 31.472C87.6084 32.1973 87.8484 32.7893 88.3284 33.248C88.819 33.696 89.4484 33.92 90.2164 33.92ZM97.4058 24.128H99.4058V36H97.4058V24.128ZM110.063 31.776C110.063 31.9147 110.052 32.112 110.031 32.368H103.327C103.444 32.9973 103.748 33.4987 104.239 33.872C104.74 34.2347 105.359 34.416 106.095 34.416C107.033 34.416 107.807 34.1067 108.415 33.488L109.487 34.72C109.103 35.1787 108.617 35.5253 108.031 35.76C107.444 35.9947 106.783 36.112 106.047 36.112C105.108 36.112 104.281 35.9253 103.567 35.552C102.852 35.1787 102.297 34.6613 101.903 34C101.519 33.328 101.327 32.5707 101.327 31.728C101.327 30.896 101.513 30.1493 101.887 29.488C102.271 28.816 102.799 28.2933 103.471 27.92C104.143 27.5467 104.9 27.36 105.743 27.36C106.575 27.36 107.316 27.5467 107.967 27.92C108.628 28.2827 109.14 28.8 109.503 29.472C109.876 30.1333 110.063 30.9013 110.063 31.776ZM105.743 28.96C105.103 28.96 104.559 29.152 104.111 29.536C103.673 29.9093 103.407 30.4107 103.311 31.04H108.159C108.073 30.4213 107.812 29.92 107.375 29.536C106.937 29.152 106.393 28.96 105.743 28.96ZM121.206 24.8C122.176 24.8 123.019 24.96 123.734 25.28C124.459 25.6 125.014 26.0587 125.398 26.656C125.782 27.2533 125.974 27.9627 125.974 28.784C125.974 29.5947 125.782 30.304 125.398 30.912C125.014 31.5093 124.459 31.968 123.734 32.288C123.019 32.608 122.176 32.768 121.206 32.768H118.678V36H116.598V24.8H121.206ZM121.11 31.008C122.016 31.008 122.704 30.816 123.174 30.432C123.643 30.048 123.878 29.4987 123.878 28.784C123.878 28.0693 123.643 27.52 123.174 27.136C122.704 26.752 122.016 26.56 121.11 26.56H118.678V31.008H121.11ZM128.015 24.128H130.015V36H128.015V24.128ZM135.904 27.36C137.163 27.36 138.123 27.664 138.784 28.272C139.456 28.8693 139.792 29.776 139.792 30.992V36H137.904V34.96C137.659 35.3333 137.307 35.6213 136.848 35.824C136.4 36.016 135.856 36.112 135.216 36.112C134.576 36.112 134.016 36.0053 133.536 35.792C133.056 35.568 132.683 35.264 132.416 34.88C132.16 34.4853 132.032 34.0427 132.032 33.552C132.032 32.784 132.315 32.1707 132.88 31.712C133.456 31.2427 134.357 31.008 135.584 31.008H137.792V30.88C137.792 30.2827 137.611 29.824 137.248 29.504C136.896 29.184 136.368 29.024 135.664 29.024C135.184 29.024 134.709 29.0987 134.24 29.248C133.781 29.3973 133.392 29.6053 133.072 29.872L132.288 28.416C132.736 28.0747 133.275 27.8133 133.904 27.632C134.533 27.4507 135.2 27.36 135.904 27.36ZM135.632 34.656C136.133 34.656 136.576 34.544 136.96 34.32C137.355 34.0853 137.632 33.7547 137.792 33.328V32.336H135.728C134.576 32.336 134 32.7147 134 33.472C134 33.8347 134.144 34.1227 134.432 34.336C134.72 34.5493 135.12 34.656 135.632 34.656ZM150.203 27.456L146.203 36.688C145.829 37.616 145.376 38.2667 144.843 38.64C144.309 39.024 143.664 39.216 142.907 39.216C142.48 39.216 142.059 39.1467 141.643 39.008C141.227 38.8693 140.885 38.6773 140.619 38.432L141.419 36.96C141.611 37.1413 141.835 37.2853 142.091 37.392C142.357 37.4987 142.624 37.552 142.891 37.552C143.243 37.552 143.531 37.4613 143.755 37.28C143.989 37.0987 144.203 36.7947 144.395 36.368L144.539 36.032L140.811 27.456H142.891L145.579 33.776L148.283 27.456H150.203Z" fill="#333333"/>
<path d="M57.463 13.85H58.102V16.253C57.808 16.511 57.46 16.709 57.058 16.847C56.656 16.985 56.233 17.054 55.789 17.054C55.159 17.054 54.592 16.916 54.088 16.64C53.584 16.364 53.188 15.983 52.9 15.497C52.612 15.005 52.468 14.456 52.468 13.85C52.468 13.244 52.612 12.698 52.9 12.212C53.188 11.72 53.584 11.336 54.088 11.06C54.592 10.784 55.162 10.646 55.798 10.646C56.278 10.646 56.719 10.724 57.121 10.88C57.523 11.03 57.862 11.255 58.138 11.555L57.724 11.978C57.226 11.486 56.593 11.24 55.825 11.24C55.315 11.24 54.853 11.354 54.439 11.582C54.031 11.804 53.71 12.116 53.476 12.518C53.242 12.914 53.125 13.358 53.125 13.85C53.125 14.342 53.242 14.786 53.476 15.182C53.71 15.578 54.031 15.89 54.439 16.118C54.847 16.346 55.306 16.46 55.816 16.46C56.464 16.46 57.013 16.298 57.463 15.974V13.85ZM63.9739 14.831H60.0139C60.0499 15.323 60.2389 15.722 60.5809 16.028C60.9229 16.328 61.3549 16.478 61.8769 16.478C62.1709 16.478 62.4409 16.427 62.6869 16.325C62.9329 16.217 63.1459 16.061 63.3259 15.857L63.6859 16.271C63.4759 16.523 63.2119 16.715 62.8939 16.847C62.5819 16.979 62.2369 17.045 61.8589 17.045C61.3729 17.045 60.9409 16.943 60.5629 16.739C60.1909 16.529 59.8999 16.241 59.6899 15.875C59.4799 15.509 59.3749 15.095 59.3749 14.633C59.3749 14.171 59.4739 13.757 59.6719 13.391C59.8759 13.025 60.1519 12.74 60.4999 12.536C60.8539 12.332 61.2499 12.23 61.6879 12.23C62.1259 12.23 62.5189 12.332 62.8669 12.536C63.2149 12.74 63.4879 13.025 63.6859 13.391C63.8839 13.751 63.9829 14.165 63.9829 14.633L63.9739 14.831ZM61.6879 12.779C61.2319 12.779 60.8479 12.926 60.5359 13.22C60.2299 13.508 60.0559 13.886 60.0139 14.354H63.3709C63.3289 13.886 63.1519 13.508 62.8399 13.22C62.5339 12.926 62.1499 12.779 61.6879 12.779ZM67.7766 16.712C67.6566 16.82 67.5066 16.904 67.3266 16.964C67.1526 17.018 66.9696 17.045 66.7776 17.045C66.3336 17.045 65.9916 16.925 65.7516 16.685C65.5116 16.445 65.3916 16.106 65.3916 15.668V12.806H64.5456V12.266H65.3916V11.231H66.0306V12.266H67.4706V12.806H66.0306V15.632C66.0306 15.914 66.0996 16.13 66.2376 16.28C66.3816 16.424 66.5856 16.496 66.8496 16.496C66.9816 16.496 67.1076 16.475 67.2276 16.433C67.3536 16.391 67.4616 16.331 67.5516 16.253L67.7766 16.712ZM71.2953 12.266H71.9343V17H71.2953V12.266ZM71.6193 11.231C71.4873 11.231 71.3763 11.186 71.2863 11.096C71.1963 11.006 71.1513 10.898 71.1513 10.772C71.1513 10.652 71.1963 10.547 71.2863 10.457C71.3763 10.367 71.4873 10.322 71.6193 10.322C71.7513 10.322 71.8623 10.367 71.9523 10.457C72.0423 10.541 72.0873 10.643 72.0873 10.763C72.0873 10.895 72.0423 11.006 71.9523 11.096C71.8623 11.186 71.7513 11.231 71.6193 11.231ZM76.2053 16.712C76.0853 16.82 75.9353 16.904 75.7553 16.964C75.5813 17.018 75.3983 17.045 75.2063 17.045C74.7623 17.045 74.4203 16.925 74.1803 16.685C73.9403 16.445 73.8203 16.106 73.8203 15.668V12.806H72.9743V12.266H73.8203V11.231H74.4593V12.266H75.8993V12.806H74.4593V15.632C74.4593 15.914 74.5283 16.13 74.6663 16.28C74.8103 16.424 75.0143 16.496 75.2783 16.496C75.4103 16.496 75.5363 16.475 75.6563 16.433C75.7823 16.391 75.8903 16.331 75.9803 16.253L76.2053 16.712ZM81.659 17.045C81.203 17.045 80.792 16.943 80.426 16.739C80.06 16.529 79.772 16.241 79.562 15.875C79.352 15.509 79.247 15.095 79.247 14.633C79.247 14.171 79.352 13.757 79.562 13.391C79.772 13.025 80.06 12.74 80.426 12.536C80.792 12.332 81.203 12.23 81.659 12.23C82.115 12.23 82.526 12.332 82.892 12.536C83.258 12.74 83.543 13.025 83.747 13.391C83.957 13.757 84.062 14.171 84.062 14.633C84.062 15.095 83.957 15.509 83.747 15.875C83.543 16.241 83.258 16.529 82.892 16.739C82.526 16.943 82.115 17.045 81.659 17.045ZM81.659 16.478C81.995 16.478 82.295 16.403 82.559 16.253C82.829 16.097 83.039 15.878 83.189 15.596C83.339 15.314 83.414 14.993 83.414 14.633C83.414 14.273 83.339 13.952 83.189 13.67C83.039 13.388 82.829 13.172 82.559 13.022C82.295 12.866 81.995 12.788 81.659 12.788C81.323 12.788 81.02 12.866 80.75 13.022C80.486 13.172 80.276 13.388 80.12 13.67C79.97 13.952 79.895 14.273 79.895 14.633C79.895 14.993 79.97 15.314 80.12 15.596C80.276 15.878 80.486 16.097 80.75 16.253C81.02 16.403 81.323 16.478 81.659 16.478ZM87.7786 12.23C88.3726 12.23 88.8436 12.404 89.1916 12.752C89.5456 13.094 89.7226 13.595 89.7226 14.255V17H89.0836V14.318C89.0836 13.826 88.9606 13.451 88.7146 13.193C88.4686 12.935 88.1176 12.806 87.6616 12.806C87.1516 12.806 86.7466 12.959 86.4466 13.265C86.1526 13.565 86.0056 13.982 86.0056 14.516V17H85.3666V12.266H85.9786V13.139C86.1526 12.851 86.3926 12.629 86.6986 12.473C87.0106 12.311 87.3706 12.23 87.7786 12.23Z" fill="#333333"/>
<defs>
<linearGradient id="paint0_linear_1130_1023" x1="27.8" y1="12.7102" x2="11.02" y2="29.4902" gradientUnits="userSpaceOnUse">
<stop stop-color="#00A0FF"/>
<stop offset="0.01" stop-color="#00A1FF"/>
<stop offset="0.26" stop-color="#00BEFF"/>
<stop offset="0.51" stop-color="#00D2FF"/>
<stop offset="0.76" stop-color="#00DFFF"/>
<stop offset="1" stop-color="#00E3FF"/>
</linearGradient>
<linearGradient id="paint1_linear_1130_1023" x1="39.83" y1="24.0002" x2="15.64" y2="24.0002" gradientUnits="userSpaceOnUse">
<stop stop-color="#FFE000"/>
<stop offset="0.41" stop-color="#FFBD00"/>
<stop offset="0.78" stop-color="#FFA500"/>
<stop offset="1" stop-color="#FF9C00"/>
</linearGradient>
<linearGradient id="paint2_linear_1130_1023" x1="30.8299" y1="26.3" x2="8.06994" y2="49.05" gradientUnits="userSpaceOnUse">
<stop stop-color="#FF3A44"/>
<stop offset="1" stop-color="#C31162"/>
</linearGradient>
<linearGradient id="paint3_linear_1130_1023" x1="13.3001" y1="4.18005" x2="23.4601" y2="14.34" gradientUnits="userSpaceOnUse">
<stop stop-color="#32A071"/>
<stop offset="0.07" stop-color="#2DA771"/>
<stop offset="0.48" stop-color="#15CF74"/>
<stop offset="0.8" stop-color="#06E775"/>
<stop offset="1" stop-color="#00F076"/>
</linearGradient>
</defs>
</svg>
