<svg width="131" height="138" viewBox="0 0 131 138" fill="none" xmlns="http://www.w3.org/2000/svg">
<path fill-rule="evenodd" clip-rule="evenodd" d="M20.7941 118.851C20.2154 118.851 19.9442 118.49 19.9442 118.038V116.844H32.077V118.038C32.077 118.472 31.8239 118.851 31.2272 118.851H30.4678V129.845H27.5205C25.4591 129.845 24.8444 128.76 24.8444 127.133V118.869H23.2532V129.863H21.5354V118.869H20.7941V118.851Z" fill="url(#paint0_linear_1130_1009)"/>
<path fill-rule="evenodd" clip-rule="evenodd" d="M47.79 110.353C42.1304 110.353 39.0384 111.167 39.0384 117.477V122.721C39.0384 128.634 42.709 129.863 47.79 129.863H57.6265V120.497C57.6265 119.231 57.3914 118.49 56.0172 118.49H47.7357V119.882C47.7357 121.094 48.242 121.925 49.9055 121.925H51.985V126.012H47.8804C45.3489 126.012 44.698 125.433 44.698 123.245V117.513C44.698 115.145 44.9331 114.494 47.8804 114.494H51.985C54.0282 114.494 54.4079 114.421 55.4567 113.409L58.4763 110.353H47.79V110.353Z" fill="#616262"/>
<path fill-rule="evenodd" clip-rule="evenodd" d="M66.9387 129.846H61.2429V117.876C61.2429 116.085 60.3208 115.181 58.4945 114.892V114.458H62.9969C64.8231 114.458 66.2516 115.037 66.342 116.863H66.4143C67.1738 112.071 69.9945 110.372 76.1604 110.372H84.4961L81.4764 113.427C80.4638 114.44 80.048 114.458 78.0047 114.458H74.2437C72.978 114.458 66.9387 114.151 66.9387 122.306V129.846Z" fill="#616262"/>
<path fill-rule="evenodd" clip-rule="evenodd" d="M130.008 123.589C130.008 125.524 129.773 127.603 127.91 128.995C127.097 129.592 125.994 129.863 124.565 129.863H119.575V126.392H122.269C124.312 126.392 124.674 125.09 124.674 123.589V123.227C124.674 121.708 124.312 120.425 122.269 120.425H118.092V138H112.487V116.881H121.31C124.348 116.881 126.554 116.754 127.91 117.767C129.773 119.159 130.008 121.293 130.008 123.227V123.589V123.589Z" fill="#616262"/>
<path fill-rule="evenodd" clip-rule="evenodd" d="M98.8348 129.846H109.051V116.845H103.446V126.338H99.4495C97.6594 126.338 97.0808 125.777 97.0808 124.186V116.845H91.7105V124.602C91.6925 128.453 92.7774 129.846 98.8348 129.846Z" fill="#616262"/>
<path fill-rule="evenodd" clip-rule="evenodd" d="M81.3136 116.845H77.426C71.3687 116.845 70.2838 118.237 70.2838 122.088V124.584C70.2838 128.435 71.3687 129.827 77.426 129.827H81.3136C87.371 129.827 88.4559 128.435 88.4559 124.584V122.088C88.4559 118.237 87.371 116.845 81.3136 116.845ZM83.0856 124.186C83.0856 125.777 82.507 126.338 80.7169 126.338H78.0589C76.2688 126.338 75.6902 125.777 75.6902 124.186V122.504C75.6902 120.913 76.2688 120.353 78.0589 120.353H80.7169C82.507 120.353 83.0856 120.913 83.0856 122.504V124.186Z" fill="#616262"/>
<path fill-rule="evenodd" clip-rule="evenodd" d="M18.4434 118.454C18.4434 122.287 16.9607 124.204 12.7115 124.204H7.52198V120.732H10.2885C12.4402 120.732 12.82 119.882 12.82 118.382V116.845C12.82 115.326 12.4221 114.494 10.2885 114.494H5.89464V129.845H0V110.353H9.29402C14.8089 110.353 18.4434 109.793 18.4434 116.32V118.454Z" fill="url(#paint1_linear_1130_1009)"/>
<path fill-rule="evenodd" clip-rule="evenodd" d="M26.0015 115.343C28.768 115.343 31.0101 113.101 31.0101 110.335C31.0101 107.568 28.768 105.326 26.0015 105.326C23.2349 105.326 20.9928 107.568 20.9928 110.335C20.9928 113.101 23.2349 115.343 26.0015 115.343Z" fill="url(#paint2_linear_1130_1009)"/>
<path fill-rule="evenodd" clip-rule="evenodd" d="M47.7719 15.1887L39.0022 0C22.9095 9.29402 13.0007 26.4536 13.0007 45.0416C13.0007 73.7554 36.29 97.0447 65.0038 97.0447C93.7176 97.0447 117.007 73.7554 117.007 45.0416C117.007 26.4717 107.098 9.29402 91.0053 0L82.2357 15.1887C92.5242 21.1375 99.4495 32.2759 99.4495 45.0235C99.4495 64.0455 84.0258 79.4692 65.0038 79.4692C45.9818 79.4692 30.5581 64.0455 30.5581 45.0235C30.54 32.2759 37.4834 21.1375 47.7719 15.1887Z" fill="url(#paint3_linear_1130_1009)"/>
<path d="M65.0037 40.2316L75.5454 23.9218L80.4094 16.3998C75.8166 13.9226 70.5729 12.5122 65.0037 12.5122C59.4345 12.5122 54.1727 13.9226 49.5981 16.3998L54.462 23.9218L65.0037 40.2316Z" fill="url(#paint4_linear_1130_1009)"/>
<path d="M65.0037 49.8145L54.462 66.1242L49.5981 73.6462C54.1908 76.1234 59.4345 77.5338 65.0037 77.5338C70.591 77.5338 75.8347 76.1234 80.4094 73.6462L75.5454 66.1242L65.0037 49.8145Z" fill="url(#paint5_linear_1130_1009)"/>
<path d="M69.1445 42.6181L88.6728 43.6126L97.4786 44.0646C97.1532 32.7816 91.0777 22.9452 82.073 17.376L78.0046 25.3319L69.1445 42.6181Z" fill="url(#paint6_linear_1130_1009)"/>
<path d="M69.1445 47.4099L78.1131 64.9492L82.0549 72.6701C91.0596 67.1009 97.1351 57.2645 97.4605 45.9814L88.6728 46.4335L69.1445 47.4099Z" fill="url(#paint7_linear_1130_1009)"/>
<path d="M60.845 42.6181L52.003 25.3139L47.9346 17.3579C38.9299 22.9271 32.8545 32.7636 32.529 44.0466L41.3348 43.5945L60.845 42.6181Z" fill="url(#paint8_linear_1130_1009)"/>
<path d="M60.8449 47.41L41.2985 46.4154L32.5108 45.9634C32.8363 57.2464 38.9117 67.0829 47.9165 72.6521L51.8583 64.9312L60.8449 47.41Z" fill="url(#paint9_linear_1130_1009)"/>
<path d="M83.7908 15.1709C87.4794 17.178 94.8568 23.0003 97.4787 30.8478C103.373 32.5475 110.497 35.4406 115.651 39.6174C113.951 28.9854 110.281 19.4743 101.42 9.69212C96.882 4.71964 91.584 1.91699 91.584 1.91699L83.7908 15.1709Z" fill="url(#paint10_radial_1130_1009)"/>
<path d="M83.7908 15.1709C87.4794 17.178 94.8568 23.0003 97.4787 30.8478C103.373 32.5475 110.497 35.4406 115.651 39.6174C113.951 28.9854 110.281 19.4743 101.42 9.69212C96.882 4.71964 91.584 1.91699 91.584 1.91699L83.7908 15.1709Z" fill="url(#paint11_radial_1130_1009)"/>
<path d="M82.2899 18.6426L76.3591 30.2691C76.3591 30.2691 84.9841 28.5333 92.1083 29.6544C91.1681 28.1174 87.1358 22.277 82.2899 18.6426Z" fill="url(#paint12_radial_1130_1009)"/>
<defs>
<linearGradient id="paint0_linear_1130_1009" x1="51.1019" y1="103.489" x2="7.61616" y2="136.834" gradientUnits="userSpaceOnUse">
<stop stop-color="#EF6C5A"/>
<stop offset="0.4833" stop-color="#E82231"/>
<stop offset="1" stop-color="#A71F23"/>
</linearGradient>
<linearGradient id="paint1_linear_1130_1009" x1="41.682" y1="91.2039" x2="-1.80419" y2="124.55" gradientUnits="userSpaceOnUse">
<stop stop-color="#EF6C5A"/>
<stop offset="0.4833" stop-color="#E82231"/>
<stop offset="1" stop-color="#A71F23"/>
</linearGradient>
<linearGradient id="paint2_linear_1130_1009" x1="45.1213" y1="95.6885" x2="1.63479" y2="129.035" gradientUnits="userSpaceOnUse">
<stop stop-color="#EF6C5A"/>
<stop offset="0.4833" stop-color="#E82231"/>
<stop offset="1" stop-color="#A71F23"/>
</linearGradient>
<linearGradient id="paint3_linear_1130_1009" x1="64.9991" y1="-3.00699" x2="64.9991" y2="88.8408" gradientUnits="userSpaceOnUse">
<stop stop-color="#F05B4E"/>
<stop offset="0.4833" stop-color="#EC1B2E"/>
<stop offset="1" stop-color="#A62024"/>
</linearGradient>
<linearGradient id="paint4_linear_1130_1009" x1="64.9994" y1="-0.960157" x2="64.9994" y2="80.628" gradientUnits="userSpaceOnUse">
<stop stop-color="white"/>
<stop offset="0.4833" stop-color="#E82231"/>
<stop offset="1" stop-color="#A71F23"/>
</linearGradient>
<linearGradient id="paint5_linear_1130_1009" x1="64.9994" y1="-0.960772" x2="64.9994" y2="80.6274" gradientUnits="userSpaceOnUse">
<stop stop-color="white"/>
<stop offset="0.4833" stop-color="#E82231"/>
<stop offset="1" stop-color="#A71F23"/>
</linearGradient>
<linearGradient id="paint6_linear_1130_1009" x1="83.3177" y1="-0.959827" x2="83.3177" y2="80.6269" gradientUnits="userSpaceOnUse">
<stop stop-color="white"/>
<stop offset="0.4833" stop-color="#E82231"/>
<stop offset="1" stop-color="#A71F23"/>
</linearGradient>
<linearGradient id="paint7_linear_1130_1009" x1="83.3177" y1="-0.959887" x2="83.3177" y2="80.6279" gradientUnits="userSpaceOnUse">
<stop stop-color="white"/>
<stop offset="0.4833" stop-color="#E82231"/>
<stop offset="1" stop-color="#A71F23"/>
</linearGradient>
<linearGradient id="paint8_linear_1130_1009" x1="46.681" y1="-0.959812" x2="46.681" y2="80.6269" gradientUnits="userSpaceOnUse">
<stop stop-color="white"/>
<stop offset="0.4833" stop-color="#E82231"/>
<stop offset="1" stop-color="#A71F23"/>
</linearGradient>
<linearGradient id="paint9_linear_1130_1009" x1="46.6809" y1="-0.959859" x2="46.6809" y2="80.6279" gradientUnits="userSpaceOnUse">
<stop stop-color="white"/>
<stop offset="0.4833" stop-color="#E82231"/>
<stop offset="1" stop-color="#A71F23"/>
</linearGradient>
<radialGradient id="paint10_radial_1130_1009" cx="0" cy="0" r="1" gradientUnits="userSpaceOnUse" gradientTransform="translate(110.561 11.2284) scale(14.9388)">
<stop stop-color="white"/>
<stop offset="1" stop-color="#E82328"/>
</radialGradient>
<radialGradient id="paint11_radial_1130_1009" cx="0" cy="0" r="1" gradientUnits="userSpaceOnUse" gradientTransform="translate(107.9 5.74737) rotate(-45) scale(35.5934)">
<stop stop-color="white"/>
<stop offset="1" stop-color="#E82328"/>
</radialGradient>
<radialGradient id="paint12_radial_1130_1009" cx="0" cy="0" r="1" gradientUnits="userSpaceOnUse" gradientTransform="translate(94.3517 11.0336) scale(22.3445)">
<stop stop-color="white"/>
<stop offset="1" stop-color="#E82328"/>
</radialGradient>
</defs>
</svg>
