<svg width="180" height="180" viewBox="0 0 180 180" fill="none" xmlns="http://www.w3.org/2000/svg">
<g filter="url(#filter0_d_1521_72650)">
<path d="M90 130C112.091 130 130 112.091 130 90C130 67.9086 112.091 50 90 50C67.9086 50 50 67.9086 50 90C50 112.091 67.9086 130 90 130Z" fill="#FFF080"/>
<path d="M90 122.5C107.949 122.5 122.5 107.949 122.5 90C122.5 72.0507 107.949 57.5 90 57.5C72.0507 57.5 57.5 72.0507 57.5 90C57.5 107.949 72.0507 122.5 90 122.5Z" fill="#FFD028"/>
<path d="M91.3 97.65C87.55 97.65 84.55 94.65 84.55 91C84.55 87.3 87.6 84.35 91.3 84.35C94.45 84.35 97.15 86.5 97.85 89.4L111 86.15C108.8 77.45 100.8 71 91.3 71C90.9 71 90.45 71 90.05 71.05V83.25L86.2 71.65C85.4 71.85 84.6 72.1 83.8 72.4L87.65 84L80.4 74.15C79.7 74.6 79 75.1 78.4 75.6L85.65 85.45L75.65 78.3C75.1 78.95 74.65 79.6 74.2 80.3L84.2 87.45L72.45 83.7C72.15 84.45 71.9 85.25 71.7 86.05L83.45 89.8H71.05C71 90.2 71 90.6 71 91C71 91.4 71 91.8 71.05 92.25H83.4L71.65 96C71.85 96.8 72.1 97.6 72.4 98.35L84.15 94.6L74.15 101.75C74.6 102.45 75.1 103.1 75.6 103.75L85.6 96.6L78.35 106.45C79 106.95 79.65 107.45 80.35 107.9L87.65 98L83.8 109.6C84.55 109.9 85.35 110.15 86.2 110.35L90.05 98.75V110.95C90.45 110.95 90.9 111 91.3 111C100.8 111 108.8 104.55 111 95.85L97.85 92.6C97.15 95.5 94.45 97.65 91.3 97.65Z" fill="#FFC030"/>
<path d="M90.3038 96.582C86.557 96.582 83.5696 93.5947 83.5696 89.9491C83.5696 86.2529 86.6076 83.3162 90.3038 83.3162C93.4937 83.3162 96.1266 85.4428 96.8354 88.3795L110 85.139C107.823 76.4301 99.8228 69.9998 90.3038 69.9998C89.8987 69.9998 89.443 69.9998 89.038 70.0504V82.2529L85.1899 70.658C84.3797 70.8605 83.5696 71.1137 82.8101 71.4175L86.6582 83.0124L79.4177 73.0884C78.7089 73.5441 78.0506 73.9998 77.3924 74.5567L84.6329 84.3795L74.6582 77.2403C74.1519 77.8479 73.6456 78.5567 73.1899 79.2149L83.1646 86.3542L71.3671 82.6074C71.0633 83.3668 70.8101 84.1263 70.6076 84.9365L82.4051 88.6833H70.0506C70.0506 89.0884 70 89.4934 70 89.8985C70 90.3036 70 90.7086 70.0506 91.1137H82.4051L70.6076 94.8605C70.8101 95.6706 71.0633 96.4301 71.3671 97.1896L83.1646 93.5441L73.1392 100.734C73.5949 101.443 74.1013 102.101 74.6076 102.709L84.6329 95.5187L77.3418 105.392C78 105.898 78.6582 106.405 79.3671 106.861L86.6582 96.9871L82.8101 108.582C83.5696 108.886 84.3797 109.139 85.1899 109.342L89.038 97.7466V109.949C89.443 109.949 89.8481 110 90.3038 110C99.8228 110 107.823 103.569 110 94.8605L96.8354 91.62C96.1266 94.4555 93.443 96.582 90.3038 96.582Z" fill="white"/>
<path d="M65.0286 80.0286L64 83L62.9714 80.0286L60 79L62.9714 77.9714L64 75L65.0286 77.9714L68 79L65.0286 80.0286Z" fill="white"/>
<path d="M110.029 110.029L109 113L107.971 110.029L105 109L107.971 107.971L109 105L110.029 107.971L113 109L110.029 110.029Z" fill="white"/>
<path d="M72.0267 70.0267L70 76L67.9733 70.0267L62 68L67.9733 65.9733L70 60L72.0267 65.9733L78 68L72.0267 70.0267Z" fill="white"/>
</g>
<defs>
<filter id="filter0_d_1521_72650" x="30" y="42" width="112" height="112" filterUnits="userSpaceOnUse" color-interpolation-filters="sRGB">
<feFlood flood-opacity="0" result="BackgroundImageFix"/>
<feColorMatrix in="SourceAlpha" type="matrix" values="0 0 0 0 0 0 0 0 0 0 0 0 0 0 0 0 0 0 127 0" result="hardAlpha"/>
<feOffset dx="-4" dy="8"/>
<feGaussianBlur stdDeviation="8"/>
<feColorMatrix type="matrix" values="0 0 0 0 0.878431 0 0 0 0 0.494118 0 0 0 0 0.215686 0 0 0 0.32 0"/>
<feBlend mode="normal" in2="BackgroundImageFix" result="effect1_dropShadow_1521_72650"/>
<feBlend mode="normal" in="SourceGraphic" in2="effect1_dropShadow_1521_72650" result="shape"/>
</filter>
</defs>
</svg>
