<svg width="16" height="16" viewBox="0 0 16 16" fill="none" xmlns="http://www.w3.org/2000/svg">
<path d="M14.6654 7.38674V8.00007C14.6645 9.43769 14.199 10.8365 13.3383 11.988C12.4775 13.1394 11.2676 13.9817 9.88894 14.3893C8.51032 14.797 7.03687 14.748 5.68835 14.2498C4.33982 13.7516 3.18847 12.8308 2.406 11.6248C1.62354 10.4188 1.25189 8.99211 1.34648 7.55761C1.44107 6.12312 1.99684 4.75762 2.93088 3.66479C3.86493 2.57195 5.12722 1.81033 6.52949 1.4935C7.93176 1.17668 9.39888 1.32163 10.712 1.90674" stroke="url(#paint0_linear_1688_86639)" stroke-width="2" stroke-linecap="round" stroke-linejoin="round"/>
<path d="M14.6667 2.66675L8 9.34008L6 7.34008" stroke="url(#paint1_linear_1688_86639)" stroke-width="2" stroke-linecap="round" stroke-linejoin="round"/>
<defs>
<linearGradient id="paint0_linear_1688_86639" x1="14.6654" y1="1.32959" x2="-0.0292029" y2="12.9401" gradientUnits="userSpaceOnUse">
<stop stop-color="#00E8DA"/>
<stop offset="1" stop-color="#00837B"/>
</linearGradient>
<linearGradient id="paint1_linear_1688_86639" x1="14.6667" y1="2.66675" x2="7.10955" y2="10.4214" gradientUnits="userSpaceOnUse">
<stop stop-color="#00E8DA"/>
<stop offset="1" stop-color="#00837B"/>
</linearGradient>
</defs>
</svg>
