<svg width="160" height="160" viewBox="0 0 160 160" fill="none" xmlns="http://www.w3.org/2000/svg">
<path d="M81.1993 106.629C66.2719 106.629 54.171 94.7071 54.171 80C54.171 65.2931 66.2719 53.3707 81.1993 53.3707C93.8713 53.3707 104.502 61.9643 107.427 73.5574L160 60.6431C151.215 25.8136 119.269 0 81.1993 0C79.5209 0 77.8561 0.0564529 76.2028 0.154983V48.9178L60.9011 2.51997C57.6493 3.34454 54.4765 4.36277 51.3959 5.56108L66.6982 51.9599L37.5999 12.5011C34.7835 14.2707 32.0843 16.2052 29.5186 18.2934L58.614 57.7486L18.5676 29.0826C16.4483 31.6104 14.4845 34.2697 12.6884 37.0445L52.7388 65.7129L5.64444 50.637C4.42811 53.6718 3.39472 56.7978 2.55786 60.0015L49.6509 75.0772H0.157595C0.0569742 76.7062 0 78.3464 0 80C0 81.6536 0.0572356 83.2944 0.157595 84.9231H49.6503L2.55786 99.9985C3.39472 103.202 4.42811 106.328 5.64444 109.363L52.7388 94.2872L12.6884 122.956C14.4845 125.73 16.4483 128.39 18.5676 130.917L58.6134 102.252L29.5186 141.707C32.0843 143.795 34.7832 145.729 37.5999 147.499L66.6984 108.04L51.3959 154.439C54.4765 155.638 57.6493 156.655 60.9011 157.48L76.2028 111.083V159.845C77.8561 159.944 79.5209 160 81.1993 160C119.269 160 151.214 134.186 160 99.3574L107.427 86.4432C104.502 98.0363 93.8713 106.629 81.1993 106.629Z" fill="#00837B"/>
</svg>
