<svg width="160" height="38" viewBox="0 0 160 38" fill="none" xmlns="http://www.w3.org/2000/svg">
<path fill-rule="evenodd" clip-rule="evenodd" d="M35.495 28.2737C32.2613 34.0039 26.245 38 18.8754 38C8.42261 38 0 29.5555 0 18.9246C0 8.44454 8.42261 0 18.8754 0C29.7044 0 36.3223 8.82141 36.3223 16.6628L23.9891 19.8295L13.6113 22.5314V25.6348C13.6113 30.0835 15.4913 31.893 18.725 31.893C22.1091 31.893 23.0866 30.2341 23.6885 28.6509C24.0644 27.5197 24.3707 25.3689 24.3707 25.3689L35.495 28.2737ZM13.6113 12.3652V17.7572L23.7634 15.1547V12.3652C23.7634 7.91681 21.8834 6.10704 18.65 6.10704C15.4163 6.10704 13.6113 7.91681 13.6113 12.3652ZM76.1406 26.4456C74.2301 33.3041 67.3894 38 59.501 38C49.086 38 40.8894 29.4114 40.8894 18.7836C40.8894 8.27955 49.086 0 59.501 0C67.6974 0 74.2205 5.22052 76.1313 11.6462L64.517 14.6482L64.4257 14.6716L63.8151 11.0603C63.3219 8.83582 62.4591 6.11721 58.9462 6.11721C55.6799 6.11721 53.708 8.03264 53.708 12.4195V25.5805C53.708 30.0292 55.6799 31.8831 58.9462 31.8831C62.5209 31.8831 63.3219 29.2261 63.8151 26.94C64.3082 24.9008 64.4313 23.4179 64.4313 23.4179L76.1406 26.4456ZM99.6879 31.9512C96.4229 31.9512 93.8678 29.9586 93.8678 25.4757V12.5243C93.8678 8.04111 96.4229 6.04856 99.6879 6.04856C102.882 6.04856 105.437 8.04111 105.437 12.5243V25.4757C105.437 29.9586 102.882 31.9512 99.6879 31.9512ZM99.6879 38C110.121 38 118.639 29.4605 118.639 19C118.639 8.46799 110.121 0 99.6879 0C89.1835 0 80.6662 8.46799 80.6662 19C80.6662 29.4605 89.1835 38 99.6879 38ZM159.173 28.2737C155.939 34.0039 149.923 38 142.553 38C132.1 38 123.678 29.5555 123.678 18.9246C123.678 8.44454 132.1 0 142.553 0C153.382 0 160 8.82141 160 16.6628L147.667 19.8295L137.289 22.5314V25.6348C137.289 30.0835 139.169 31.893 142.403 31.893C145.787 31.893 146.765 30.2341 147.366 28.6509C147.742 27.5197 148.048 25.3689 148.048 25.3689L159.173 28.2737ZM137.289 12.3652V17.7572L147.441 15.1547V12.3652C147.441 7.91681 145.561 6.10704 142.328 6.10704C139.094 6.10704 137.289 7.91681 137.289 12.3652Z" fill="#00837C"/>
</svg>
