<svg width="181" height="76" viewBox="0 0 181 76" fill="none" xmlns="http://www.w3.org/2000/svg">
<path fill-rule="evenodd" clip-rule="evenodd" d="M136.018 51.4807C136.018 51.6458 135.879 51.7911 135.601 51.9166L135.943 52.2534C136.157 52.1741 136.327 52.0627 136.455 51.9166C136.583 51.7713 136.647 51.602 136.647 51.4105C136.647 51.1859 136.567 51.0051 136.408 50.8697C136.247 50.7343 136.029 50.6666 135.752 50.6666C135.424 50.6666 135.15 50.736 134.929 50.8747L135.165 51.2916C135.321 51.2115 135.477 51.1727 135.633 51.1727C135.747 51.1727 135.84 51.2008 135.911 51.2569C135.982 51.3139 136.018 51.3874 136.018 51.4807ZM135.932 56.3508C135.932 56.8478 135.772 57.2474 135.452 57.5512C135.132 57.8558 134.726 58.0077 134.236 58.0077C133.745 58.0077 133.341 57.8558 133.025 57.5512C132.708 57.2474 132.55 56.8478 132.55 56.3508C132.55 55.8554 132.708 55.455 133.025 55.1512C133.341 54.8466 133.745 54.6938 134.236 54.6938C134.726 54.6938 135.132 54.8466 135.452 55.1512C135.772 55.455 135.932 55.8554 135.932 56.3508ZM134.225 52.4326L135.153 52.9783H136.263L134.823 51.9166H133.627L132.187 52.9783H133.296L134.225 52.4326ZM131.594 57.7551C131.854 58.1679 132.215 58.4907 132.678 58.7219C133.14 58.9538 133.659 59.0694 134.236 59.0694C134.819 59.0694 135.342 58.9538 135.804 58.7219C136.267 58.4907 136.627 58.1679 136.888 57.7551C137.147 57.3415 137.276 56.8742 137.276 56.3508C137.276 55.829 137.147 55.3625 136.888 54.9522C136.627 54.5427 136.267 54.2216 135.804 53.9904C135.342 53.7584 134.819 53.6429 134.236 53.6429C133.659 53.6429 133.14 53.7584 132.678 53.9904C132.215 54.2216 131.854 54.5427 131.594 54.9522C131.335 55.3625 131.205 55.829 131.205 56.3508C131.205 56.8742 131.335 57.3415 131.594 57.7551ZM76.8897 60.3103C76.8897 60.4886 76.9507 60.6314 77.0713 60.7371C77.1918 60.8428 77.3453 60.8956 77.5302 60.8956C77.7151 60.8956 77.8679 60.8428 77.9884 60.7371C78.1097 60.6314 78.17 60.4886 78.17 60.3103C78.17 60.1385 78.1097 59.9949 77.9884 59.8793C77.8679 59.7629 77.7151 59.7051 77.5302 59.7051C77.3453 59.7051 77.1918 59.7629 77.0713 59.8793C76.9507 59.9949 76.8897 60.1385 76.8897 60.3103ZM78.1914 53.5842H76.8575V58.882H78.1914V53.5842ZM76.6759 51.9669C76.6759 52.1791 76.7584 52.3558 76.9219 52.4986C77.0861 52.6398 77.2884 52.7108 77.5302 52.7108C77.7787 52.7108 77.9834 52.6365 78.1436 52.4879C78.3037 52.3393 78.3838 52.1552 78.3838 51.9372C78.3838 51.7325 78.3021 51.5624 78.1386 51.427C77.9752 51.2916 77.7721 51.2231 77.5302 51.2231C77.2884 51.2231 77.0861 51.2941 76.9219 51.4361C76.7584 51.5781 76.6759 51.7556 76.6759 51.9669ZM70.1385 57.6189C69.7224 57.8138 69.2403 57.9112 68.6921 57.9112H66.8783V55.9471H68.8737V54.9952H66.8783V53.1491H68.6921C69.2403 53.1491 69.7224 53.2474 70.1385 53.4422C70.5546 53.6371 70.8749 53.9145 71.0986 54.2761C71.3232 54.636 71.4347 55.0538 71.4347 55.5302C71.4347 56.0065 71.3232 56.4251 71.0986 56.7859C70.8749 57.1459 70.5546 57.4241 70.1385 57.6189ZM65.4913 54.9952V52.0577H68.7565C69.5532 52.0577 70.2607 52.2022 70.8799 52.4903C71.499 52.7768 71.9787 53.1838 72.3213 53.7097C72.6623 54.2356 72.8332 54.8424 72.8332 55.5302C72.8332 56.2179 72.6623 56.8255 72.3213 57.3506C71.9787 57.8765 71.499 58.2836 70.8799 58.5717C70.2607 58.859 69.5532 59.0027 68.7565 59.0027H65.4913V55.9471H64.4346V54.9952H65.4913ZM87.2025 54.3123C87.6359 54.7028 87.8539 55.2815 87.8539 56.0493V59.0842H86.5198V56.207C86.5198 55.7439 86.4017 55.3955 86.1672 55.1602C85.9328 54.9257 85.5984 54.8085 85.1642 54.8085C84.6738 54.8085 84.2858 54.9463 84.0009 55.2204C83.7161 55.4954 83.5741 55.89 83.5741 56.406V59.0842H82.24V53.7864H83.5097V54.4708C83.731 54.2264 84.0084 54.0415 84.3427 53.916C84.6771 53.7897 85.0535 53.727 85.4738 53.727C86.192 53.727 86.7691 53.9218 87.2025 54.3123ZM97.8695 55.8284C97.8695 55.0606 97.6516 54.4819 97.2182 54.0914C96.7847 53.7009 96.2077 53.5061 95.4894 53.5061C95.0915 53.5061 94.7299 53.5639 94.4063 53.6794C94.0826 53.7958 93.8102 53.9626 93.5898 54.1806V51.5015H92.2557V58.8633H93.5898V56.1851C93.5898 55.6691 93.7318 55.2745 94.0166 54.9995C94.3014 54.7254 94.6894 54.5876 95.1798 54.5876C95.6141 54.5876 95.9484 54.7048 96.1829 54.9393C96.4174 55.1746 96.5354 55.523 96.5354 55.9861V58.8633H97.8695V55.8284ZM111.873 53.727L109.43 59.0248H108.053L105.61 53.727H106.998L108.768 57.6559L110.593 53.727H111.873ZM115.828 60.3103C115.828 60.4886 115.889 60.6314 116.01 60.7371C116.13 60.8428 116.284 60.8956 116.469 60.8956C116.654 60.8956 116.806 60.8428 116.927 60.7371C117.048 60.6314 117.109 60.4886 117.109 60.3103C117.109 60.1385 117.048 59.9949 116.927 59.8793C116.806 59.7629 116.654 59.7051 116.469 59.7051C116.284 59.7051 116.13 59.7629 116.01 59.8793C115.889 59.9949 115.828 60.1385 115.828 60.3103ZM117.13 53.5842H115.796V58.882H117.13V53.5842ZM115.614 51.9669C115.614 52.1791 115.697 52.3558 115.86 52.4986C116.025 52.6398 116.227 52.7108 116.469 52.7108C116.717 52.7108 116.922 52.6365 117.082 52.4879C117.242 52.3393 117.322 52.1552 117.322 51.9372C117.322 51.7325 117.241 51.5624 117.077 51.427C116.914 51.2916 116.711 51.2231 116.469 51.2231C116.227 51.2231 116.025 51.2941 115.86 51.4361C115.697 51.5781 115.614 51.7556 115.614 51.9669ZM128.71 58.7945C128.554 58.9142 128.364 59.0033 128.14 59.0619C127.915 59.1214 127.679 59.1519 127.43 59.1519C126.803 59.1519 126.319 59 125.979 58.6954C125.637 58.3916 125.466 57.9482 125.466 57.3662V54.8168H124.528V53.8236H125.466V52.6141H126.801V53.8236H128.326V54.8168H126.801V57.3356C126.801 57.5941 126.868 57.7905 127.003 57.9259C127.138 58.0622 127.334 58.1299 127.59 58.1299C127.889 58.1299 128.138 58.0572 128.337 57.9119L128.71 58.7945ZM150.752 50.9449H152.181L150.56 52.1056H149.535L150.752 50.9449ZM148.964 57.9936C149.224 57.8508 149.407 57.6477 149.514 57.3835V56.7684H148.137C147.369 56.7684 146.985 57.0029 146.985 57.4727C146.985 57.698 147.081 57.8764 147.273 58.0085C147.465 58.1405 147.732 58.2066 148.074 58.2066C148.407 58.2066 148.705 58.1356 148.964 57.9936ZM149.3 53.0187L148.372 52.473L147.444 53.0187H146.333L147.775 51.957H148.969L150.41 53.0187H149.3ZM150.181 54.243C150.626 54.617 150.848 55.1809 150.848 55.9346V59.0404H149.589V58.3948C149.425 58.6268 149.192 58.8043 148.889 58.9257C148.587 59.0478 148.223 59.1098 147.795 59.1098C147.369 59.1098 146.995 59.0421 146.676 58.9067C146.356 58.7705 146.108 58.5822 145.934 58.3403C145.759 58.0993 145.672 57.8268 145.672 57.5222C145.672 57.0467 145.862 56.6644 146.243 56.3763C146.623 56.0882 147.223 55.9453 148.041 55.9453H149.514V55.8653C149.514 55.4954 149.395 55.2106 149.156 55.0124C148.917 54.8143 148.564 54.7144 148.094 54.7144C147.775 54.7144 147.459 54.7606 147.151 54.8531C146.841 54.9464 146.579 55.0752 146.366 55.2403L145.843 54.3371C146.142 54.1266 146.501 53.964 146.92 53.8517C147.341 53.7394 147.785 53.6825 148.255 53.6825C149.094 53.6825 149.736 53.8699 150.181 54.243ZM165.217 56.0485C165.217 55.2749 165.007 54.6945 164.587 54.3073C164.168 53.9201 163.599 53.727 162.881 53.727C162.433 53.727 162.023 53.8054 161.652 53.9598C161.282 54.1158 160.981 54.3321 160.746 54.6095C160.554 54.3189 160.293 54.0993 159.961 53.9499C159.631 53.8013 159.252 53.727 158.826 53.727C158.433 53.727 158.078 53.7897 157.758 53.9152C157.438 54.0415 157.171 54.2223 156.957 54.4617V53.7864H155.688V59.0842H157.022V56.3952C157.022 55.8793 157.155 55.4863 157.421 55.2155C157.689 54.9439 158.05 54.8076 158.505 54.8076C158.917 54.8076 159.234 54.9257 159.455 55.1602C159.675 55.3955 159.786 55.7439 159.786 56.207V59.0842H161.12V56.3952C161.12 55.8867 161.254 55.4945 161.525 55.2196C161.795 54.9455 162.155 54.8076 162.603 54.8076C163.015 54.8076 163.332 54.9257 163.552 55.1602C163.773 55.3955 163.883 55.7439 163.883 56.207V59.0842H165.217V56.0485Z" fill="#00837B"/>
<path d="M76.0642 48.6849C80.6053 48.6849 84.3113 46.2299 86.3033 42.7079L79.45 40.923C79.45 40.923 79.261 42.245 79.03 42.9398C78.6586 43.9127 78.0562 44.9327 75.9717 44.9327C73.9789 44.9327 72.8211 43.8203 72.8211 41.0864V39.1793L79.2148 37.519L86.8125 35.5724C86.8125 30.754 82.7351 25.3333 76.0642 25.3333C69.6243 25.3333 64.4346 30.523 64.4346 36.9629C64.4346 43.496 69.6243 48.6849 76.0642 48.6849ZM125.855 44.9682C123.843 44.9682 122.268 43.7436 122.268 40.9882V33.0291C122.268 30.2746 123.843 29.05 125.855 29.05C127.823 29.05 129.397 30.2746 129.397 33.0291V40.9882C129.397 43.7436 127.823 44.9682 125.855 44.9682ZM125.855 48.6849C132.283 48.6849 137.53 43.4374 137.53 37.0091C137.53 30.5378 132.283 25.3333 125.855 25.3333C119.383 25.3333 114.135 30.5378 114.135 37.0091C114.135 43.4374 119.383 48.6849 125.855 48.6849ZM152.265 48.6849C156.805 48.6849 160.512 46.2299 162.504 42.7079L155.65 40.923C155.65 40.923 155.462 42.245 155.23 42.9398C154.86 43.9127 154.257 44.9327 152.173 44.9327C150.18 44.9327 149.022 43.8203 149.022 41.0864V39.1793L155.416 37.519L163.014 35.5724C163.014 30.754 158.937 25.3333 152.265 25.3333C145.825 25.3333 140.636 30.523 140.636 36.9629C140.636 43.496 145.825 48.6849 152.265 48.6849ZM149.022 36.2457V32.9317C149.022 30.1987 150.134 29.0863 152.126 29.0863C154.118 29.0863 155.276 30.1987 155.276 32.9317V34.6465L149.022 36.2457ZM101.095 48.6849C105.955 48.6849 110.17 45.7983 111.347 41.5848L104.133 39.724C104.133 39.724 104.056 40.6358 103.753 41.8885C103.449 43.293 102.956 44.9261 100.753 44.9261C98.7408 44.9261 97.5253 43.7873 97.5253 41.0526V32.9647C97.5253 30.2696 98.7408 29.0921 100.753 29.0921C102.917 29.0921 103.449 30.7631 103.753 32.1296L104.129 34.3494L104.185 34.3346L111.341 32.4902C110.163 28.5408 106.145 25.3333 101.095 25.3333C94.6775 25.3333 89.6281 30.4206 89.6281 36.8762C89.6281 43.4077 94.6775 48.6849 101.095 48.6849ZM72.8211 36.2457V32.9317C72.8211 30.1987 73.9327 29.0863 75.9255 29.0863C77.9176 29.0863 79.0762 30.1987 79.0762 32.9317V34.6465L72.8211 36.2457Z" fill="#00837B"/>
<path d="M37.2285 44.2305C33.1184 44.2305 29.7861 40.9476 29.7861 36.8977C29.7861 32.8486 33.1184 29.5657 37.2285 29.5657C40.7182 29.5657 43.6452 31.9317 44.4501 35.124L58.9271 31.5675C56.5075 21.9774 47.7116 14.8695 37.2285 14.8695C36.7663 14.8695 36.3083 14.8843 35.8527 14.9115V28.339L31.6389 15.5632C30.7442 15.7897 29.8701 16.0706 29.0216 16.4002L33.2354 29.1768L25.2229 18.3114C24.4477 18.7983 23.7046 19.3313 22.9978 19.9064L31.0095 30.7709L19.9826 22.877C19.3985 23.5732 18.8581 24.3056 18.3638 25.0701L29.3915 32.9639L16.4237 28.8127C16.0892 29.648 15.8042 30.5089 15.5735 31.3912L28.5413 35.5425H14.9128C14.8856 35.9906 14.8691 36.4429 14.8691 36.8977C14.8691 37.3532 14.8856 37.8047 14.9128 38.2537H28.5413L15.5735 42.4049C15.8042 43.2864 16.0892 44.1473 16.4237 44.9835L29.3915 40.8322L18.3638 48.7261C18.8581 49.4898 19.3985 50.2221 19.9826 50.9183L31.0095 43.0252L22.9978 53.889C23.7046 54.464 24.4477 54.997 25.2229 55.4839L33.2354 44.6185L29.0216 57.3952C29.8701 57.7255 30.7442 58.0056 31.6389 58.233L35.8527 45.4563V58.8838C36.3083 58.911 36.7663 58.9266 37.2285 58.9266C47.7116 58.9266 56.5075 51.8187 58.9271 42.2278L44.4501 38.6722C43.6452 41.8645 40.7182 44.2305 37.2285 44.2305Z" fill="#00837B"/>
</svg>
